<svg width="206" height="175" viewBox="0 0 206 175" fill="none" xmlns="http://www.w3.org/2000/svg">
<path d="M100.104 174.484C97.9395 174.455 95.76 174.348 93.6195 174.174L93.7508 172.577C95.8573 172.751 98.0027 172.853 100.129 172.882L100.104 174.484ZM106.599 174.368L106.516 172.771C108.647 172.659 110.788 172.475 112.88 172.229L113.069 173.816C110.943 174.067 108.769 174.251 106.604 174.363L106.599 174.368ZM87.1735 173.434C85.0427 173.119 82.8924 172.722 80.7859 172.262L81.1313 170.699C83.2038 171.149 85.3151 171.536 87.4119 171.851L87.1735 173.434ZM119.486 172.833L119.189 171.261C121.276 170.869 123.373 170.404 125.421 169.877L125.825 171.43C123.743 171.967 121.612 172.441 119.491 172.838L119.486 172.833ZM74.4957 170.665C72.4184 170.065 70.3411 169.383 68.327 168.643L68.8816 167.142C70.8616 167.868 72.9 168.536 74.9432 169.131L74.4908 170.665H74.4957ZM132.052 169.591L131.541 168.072C133.555 167.404 135.569 166.658 137.525 165.86L138.138 167.346C136.148 168.159 134.1 168.918 132.052 169.596V169.591ZM62.3043 166.204C60.3486 165.332 58.3832 164.379 56.4616 163.368L57.2156 161.955C59.1032 162.947 61.0346 163.885 62.961 164.742L62.3043 166.204ZM144.049 164.684L143.338 163.247C145.236 162.318 147.128 161.311 148.962 160.251L149.77 161.635C147.902 162.709 145.975 163.735 144.049 164.679V164.684ZM50.828 160.149C48.9891 159.017 47.1745 157.807 45.428 156.559L46.367 155.257C48.0843 156.486 49.8745 157.672 51.6794 158.79L50.828 160.149ZM155.272 158.219L154.372 156.888C156.133 155.707 157.875 154.454 159.543 153.166L160.531 154.429C158.833 155.741 157.067 157.014 155.272 158.214V158.219ZM40.281 152.61C38.6075 151.235 36.9729 149.798 35.4161 148.332L36.5253 147.165C38.0578 148.608 39.668 150.021 41.3124 151.371L40.2859 152.605L40.281 152.61ZM165.527 150.306L164.457 149.111C166.048 147.703 167.605 146.227 169.083 144.731L170.232 145.854C168.728 147.378 167.142 148.874 165.527 150.306ZM30.848 143.744C29.3885 142.176 27.9583 140.531 26.601 138.861L27.8561 137.854C29.1939 139.5 30.5999 141.116 32.0302 142.66L30.848 143.749V143.744ZM174.625 141.097L173.403 140.052C174.79 138.45 176.133 136.78 177.402 135.096L178.692 136.059C177.402 137.772 176.035 139.466 174.625 141.097ZM22.6896 133.697C21.4539 131.95 20.262 130.131 19.1383 128.292L20.515 127.46C21.6145 129.265 22.7918 131.055 24.0031 132.778L22.6847 133.697H22.6896ZM182.408 130.755L181.056 129.884C182.209 128.118 183.318 126.284 184.349 124.44L185.755 125.219C184.705 127.097 183.576 128.96 182.403 130.76L182.408 130.755ZM15.9664 122.664C14.9788 120.767 14.0447 118.807 13.1836 116.837L14.6626 116.198C15.5091 118.139 16.4334 120.065 17.4015 121.928L15.9712 122.664H15.9664ZM188.723 119.46L187.268 118.778C188.173 116.871 189.02 114.906 189.793 112.937L191.292 113.517C190.508 115.521 189.642 117.519 188.723 119.46ZM10.8047 110.836C10.0847 108.823 9.4231 106.752 8.83445 104.681L10.3863 104.245C10.9604 106.282 11.6123 108.315 12.3226 110.299L10.8047 110.836ZM193.452 107.42L191.914 106.936C192.547 104.932 193.121 102.875 193.617 100.819L195.183 101.196C194.678 103.292 194.094 105.382 193.452 107.42ZM7.29229 98.4039C6.84959 96.3036 6.47499 94.1598 6.17823 92.0401L7.77391 91.8175C8.0658 93.9033 8.43553 96.0084 8.8685 98.0749L7.29229 98.4039ZM196.487 94.8663L194.901 94.5953C195.256 92.5241 195.543 90.4093 195.758 88.3042L197.358 88.4687C197.139 90.6077 196.847 92.7612 196.487 94.8663ZM5.50202 85.6183C5.34634 83.489 5.2685 81.3161 5.25391 79.1626H6.86418C6.87391 81.2725 6.95661 83.4067 7.10742 85.507L5.50202 85.6183ZM197.796 82.0226L196.186 81.9646C196.225 80.8805 196.239 79.7917 196.239 78.698V75.5863H197.849V78.698C197.849 79.811 197.83 80.9193 197.791 82.0226H197.796ZM6.86418 72.7504H5.25391V66.3431H6.86418V72.7504ZM197.854 69.1789H196.244V62.7716H197.854V69.1789ZM6.86418 59.9309H5.25391V53.5236H6.86418V59.9309ZM197.854 56.3595H196.244V49.9521H197.854V56.3595ZM6.86418 47.1162H5.25391V40.7089H6.86418V47.1162ZM197.854 43.5448H196.244V37.1375H197.854V43.5448ZM6.86418 34.2967H5.25391V27.8894H6.86418V34.2967ZM197.854 30.7253H196.244V24.318H197.854V30.7253ZM6.86418 21.4772H5.25391V15.0699H6.86418V21.4772ZM197.854 17.9058H196.244V11.4985H197.854V17.9058ZM6.86418 8.66259H5.25391V5.7251H6.86418V8.66259Z" fill="white"/>
<path d="M189.015 13.8358L197.047 0L205.078 13.8358H189.015Z" fill="white"/>
<path d="M12.1135 6.02503C12.1135 2.70038 9.40381 0 6.05677 0C2.70974 0 0 2.69554 0 6.02503C0 9.35451 2.70974 12.05 6.05677 12.05C9.40381 12.05 12.1135 9.35451 12.1135 6.02503Z" fill="white"/>
</svg>
