<svg width="206" height="177" viewBox="0 0 206 177" fill="none" xmlns="http://www.w3.org/2000/svg">
<path d="M6.8593 165.57H5.24902V168.773H6.8593V165.57Z" fill="white"/>
<path d="M6.8593 159.119H5.24902V152.668H6.8593V159.119ZM197.849 153.156H196.239V146.706H197.849V153.156ZM6.8593 146.217H5.24902V139.766H6.8593V146.217ZM197.849 140.255H196.239V133.804H197.849V140.255ZM6.8593 133.32H5.24902V126.869H6.8593V133.32ZM197.849 127.358H196.239V120.907H197.849V127.358ZM6.8593 120.418H5.24902V113.967H6.8593V120.418ZM197.849 114.456H196.239V108.005H197.849V114.456ZM6.8593 107.521H5.24902V101.07H6.8593V107.521ZM197.849 101.554H196.239V95.1082L197.849 95.0985V101.554ZM6.86903 94.6291L5.25875 94.6097C5.28308 92.4465 5.38524 90.2591 5.55551 88.1201L7.16092 88.246C6.99065 90.3511 6.89335 92.4998 6.86903 94.6291ZM195.976 88.7251C195.821 86.6103 195.587 84.4713 195.286 82.371L196.881 82.1435C197.188 84.2777 197.426 86.4554 197.587 88.6041L195.981 88.7251H195.976ZM7.88578 81.8919L6.29011 81.6596C6.60632 79.5206 7.00524 77.3671 7.46741 75.2668L9.03876 75.6104C8.58633 77.6768 8.19714 79.7916 7.88092 81.8967L7.88578 81.8919ZM194.162 76.0749C193.714 73.9988 193.194 71.9131 192.61 69.8709L194.157 69.4305C194.75 71.5066 195.286 73.6262 195.738 75.7362L194.162 76.0701V76.0749ZM10.6247 69.4111L9.07768 68.9659C9.68579 66.8898 10.3717 64.8137 11.1209 62.7909L12.6339 63.3426C11.8993 65.3315 11.2231 67.3786 10.6247 69.416V69.4111ZM190.635 63.7926C189.91 61.7988 189.107 59.8098 188.251 57.8644L189.725 57.2159C190.601 59.1904 191.418 61.2181 192.153 63.2458L190.64 63.7926H190.635ZM15.0566 57.4095L13.5874 56.7562C14.4777 54.7769 15.4409 52.8121 16.4626 50.9102L17.8831 51.6651C16.8809 53.538 15.9323 55.4689 15.0566 57.4143V57.4095ZM185.463 52.1104C184.476 50.2375 183.406 48.3695 182.292 46.5596L183.663 45.7224C184.802 47.5614 185.887 49.4632 186.894 51.3699L185.468 52.1152L185.463 52.1104ZM21.0891 46.1192L19.722 45.2723C20.8701 43.4382 22.0912 41.6234 23.3609 39.8668L24.6696 40.8056C23.4193 42.5284 22.2177 44.3141 21.0891 46.1192ZM178.745 41.2315C177.509 39.5038 176.196 37.7955 174.843 36.155L176.089 35.1387C177.466 36.8083 178.799 38.5456 180.054 40.3023L178.74 41.2315H178.745ZM28.6004 35.7436L27.3599 34.7225C28.7464 33.0626 30.2058 31.422 31.6993 29.8589L32.8669 30.9623C31.3977 32.5012 29.9626 34.1127 28.6004 35.7436ZM170.606 31.3495C169.147 29.8009 167.614 28.2861 166.053 26.8392L167.152 25.668C168.738 27.1392 170.3 28.683 171.783 30.2558L170.606 31.3543V31.3495ZM37.4448 26.4762L36.355 25.3002C37.9507 23.8388 39.6194 22.4111 41.3075 21.061L42.3145 22.3095C40.6507 23.6355 39.0112 25.0389 37.4399 26.4762H37.4448ZM161.202 22.6386C159.543 21.2981 157.821 20.0011 156.08 18.7768L157.009 17.4653C158.78 18.709 160.536 20.0302 162.219 21.3949L161.202 22.6386ZM47.4615 18.4767L46.5421 17.1604C48.3226 15.9264 50.1664 14.7359 52.0248 13.6277L52.8518 15.0021C51.0275 16.0958 49.2129 17.262 47.4615 18.4767ZM150.699 15.2682C148.87 14.16 146.982 13.105 145.095 12.1323L145.839 10.7095C147.761 11.7016 149.677 12.7759 151.541 13.8987L150.704 15.2682H150.699ZM58.4659 11.9L57.7313 10.4724C59.6626 9.49001 61.6524 8.56085 63.6421 7.70912L64.2745 9.18029C62.3189 10.0127 60.3632 10.9273 58.4659 11.8952V11.9ZM139.286 9.3787C137.33 8.53181 135.316 7.73816 133.302 7.02677L133.842 5.51688C135.89 6.24279 137.938 7.04613 139.928 7.90754L139.286 9.3787ZM70.2535 6.87191L69.7183 5.36203C71.7713 4.6458 73.8681 3.99248 75.96 3.42628L76.3881 4.97004C74.3351 5.5314 72.2724 6.1702 70.2535 6.87675V6.87191ZM127.177 5.09586C125.129 4.52481 123.028 4.01184 120.936 3.58114L121.267 2.01318C123.392 2.45356 125.528 2.97137 127.615 3.5521L127.177 5.09586ZM82.6346 3.48435L82.3135 1.91155C84.4346 1.48569 86.6043 1.12273 88.7595 0.837212L88.9735 2.42453C86.8573 2.70521 84.7265 3.05848 82.6346 3.47951V3.48435ZM114.607 2.49228C112.49 2.20191 110.345 1.98414 108.214 1.83412L108.326 0.237129C110.491 0.38715 112.675 0.6146 114.825 0.904963L114.607 2.49228ZM95.366 1.80025L95.2638 0.203254C97.3362 0.0677512 99.4379 0 101.515 0H101.797V1.60183H101.515C99.4768 1.60183 97.4092 1.66958 95.366 1.80025Z" fill="white"/>
<path d="M197.85 159.792H196.239V162.995H197.85V159.792Z" fill="white"/>
<path d="M8.38713 174.032C11.4735 172.749 12.93 169.22 11.6402 166.15C10.3504 163.079 6.80274 161.631 3.71634 162.914C0.629948 164.197 -0.826477 167.726 0.463325 170.796C1.75313 173.866 5.30073 175.315 8.38713 174.032Z" fill="white"/>
<path d="M189.015 160.658L197.042 174.493L205.074 160.658H189.015Z" fill="white"/>
</svg>
