<svg width="424" height="482" viewBox="0 0 424 482" fill="none" xmlns="http://www.w3.org/2000/svg">
<path d="M357.579 244.544H288.207C273.613 244.544 234.77 246.014 247.934 202.335L247.812 202.073L256.106 177.868L274.823 122.099C275.747 118.939 276.94 115.564 278.496 112.603L301.397 45.7744C285.226 36.2571 267.895 28.0028 249.536 21.2904C204.426 4.72698 205.375 23.9179 199.581 38.3439L143.045 206.547C121.038 272.467 153.523 277.941 194.804 277.941H353.717C352.018 285.904 349.762 293.702 347.025 301.336H117.783C102.582 301.336 60.9761 302.949 79.4787 253.322C98.3103 197.177 126.562 112.151 151.756 36.7133C157.381 19.5542 168.973 0 127.527 0C107.098 0 87.0602 1.80377 67.5456 4.99311C67.0059 5.11984 66.4999 5.17898 65.9559 5.24234C63.5018 5.68167 60.9761 6.04496 58.4967 6.51386L58.4629 6.61946C53.1457 7.67131 47.9128 8.86256 42.7179 10.1425C41.7059 10.3622 40.7445 10.5607 39.7789 10.7888C32.3534 12.6644 25.0628 14.8357 17.8819 17.1591C15.4236 17.9532 12.9441 18.8065 10.5449 19.6725C5.30356 21.4763 0.167679 23.4152 -4.85014 25.4767C-7.04701 26.3722 -9.29019 27.2171 -11.4196 28.1338C-18.0145 30.9894 -24.4785 34.0436 -30.7909 37.2963C-32.8655 38.3481 -34.801 39.4633 -36.8671 40.5997C-41.4295 43.0497 -45.9287 45.6646 -50.3646 48.3343C-52.5952 49.7283 -54.8385 51.0843 -57.0143 52.4826C-62.1755 55.8198 -67.189 59.3006 -72.0466 62.9081C-73.5815 64.0022 -75.0783 65.1512 -76.5457 66.3087C-81.3232 69.988 -85.9784 73.8153 -90.4522 77.7861C-92.3329 79.4462 -94.1503 81.1233 -95.9634 82.8214C-99.6488 86.2516 -103.132 89.6901 -106.556 93.247C-108.01 94.7889 -109.507 96.3096 -110.928 97.8641C-115.368 102.722 -119.606 107.757 -123.616 112.907C-124.856 114.542 -125.994 116.223 -127.222 117.921C-130.139 121.854 -132.88 125.875 -135.503 129.973C-136.73 131.87 -137.961 133.779 -139.134 135.655C-142.482 141.264 -145.623 146.891 -148.44 152.742C-148.87 153.595 -149.207 154.482 -149.612 155.336C-151.484 159.361 -153.352 163.425 -154.975 167.552L-156.135 170.995C-157.071 173.525 -157.914 176.123 -158.762 178.666L-160.702 184.255H-160.377C-160.423 184.318 -160.457 184.382 -160.457 184.441H-160.761L-160.706 184.255H-160.719C-161.587 187.195 -162.274 190.186 -163.042 193.147C-163.324 194.313 -163.683 195.513 -163.965 196.713C-165.42 203.062 -166.512 209.533 -167.356 216.06C-167.512 217.53 -167.672 219.029 -167.84 220.512C-168.528 227.275 -169 234.072 -169 240.975V241.017C-169 374.12 -36.3442 482 127.338 482C129.716 482 132.069 481.865 134.413 481.814C138.347 481.721 142.269 481.616 146.123 481.417C149.243 481.252 152.355 481.092 155.421 480.847C161.18 480.407 166.903 479.875 172.549 479.17C175.007 478.866 177.385 478.481 179.805 478.139C184.313 477.493 188.787 476.762 193.181 475.917C195.403 475.533 197.553 475.186 199.763 474.717C205.767 473.488 211.687 472.09 217.591 470.59C219.324 470.142 221.04 469.652 222.773 469.171C228.655 467.553 234.424 465.813 240.15 463.907C240.588 463.76 241.073 463.645 241.478 463.502C247.925 461.28 254.28 458.876 260.499 456.321C261.313 455.995 262.11 455.695 262.924 455.349C357.415 415.801 422.469 336.275 424 244.24H357.571V244.544H357.579ZM111.652 448.518C-24.1708 448.518 -134.348 355.575 -134.348 240.954C-134.348 221.302 -131.059 202.267 -125.016 184.234H-125.05C-117.127 162.154 -104.835 141.674 -89.0903 123.387C-87.4458 121.491 -85.911 119.552 -84.1779 117.663C-83.2882 116.675 -82.2382 115.767 -81.3148 114.787C-62.6561 95.6464 -39.9115 79.0449 -13.9707 65.9919C-12.381 65.2019 -10.7239 64.45 -9.03725 63.677C-5.2043 61.8436 -1.2617 60.0821 2.70618 58.3839C9.36426 55.6719 16.1615 53.2049 23.1485 50.9703C42.7686 46.3109 40.6264 57.7461 36.3887 72.5902C13.5345 141.096 -10.5679 213.301 -27.3839 263.317C-49.3906 329.237 -16.8591 334.699 24.4177 334.699H331.099C290.543 402.237 207.467 448.518 111.652 448.518Z" fill="#03045E" fill-opacity="0.1"/>
<path d="M342.295 69.2832C358.433 69.2832 373.018 76.2406 383.619 87.4434C394.173 98.6336 400.747 114.171 400.747 131.266C400.747 148.375 394.173 163.874 383.619 175.106C373.014 186.321 358.433 193.241 342.295 193.241C326.095 193.241 311.51 186.321 300.968 175.106C290.389 163.878 283.823 148.379 283.823 131.266C283.823 114.171 290.389 98.6294 300.968 87.4434C311.51 76.2406 326.095 69.2832 342.295 69.2832ZM381.224 89.9696C371.285 79.4342 357.518 72.8612 342.295 72.8612C327.061 72.8612 313.344 79.4342 303.329 89.9696C293.366 100.505 287.226 115.155 287.226 131.266C287.226 147.365 293.361 161.998 303.329 172.563C313.344 183.115 327.061 189.659 342.295 189.659C357.518 189.659 371.285 183.115 381.224 172.563C391.2 161.998 397.348 147.365 397.348 131.266C397.348 115.155 391.2 100.509 381.224 89.9696Z" fill="#03045E" fill-opacity="0.1"/>
<path d="M329.231 72.6631L358.583 188.941L355.345 189.874L325.942 73.5798L329.231 72.6631Z" fill="#03045E" fill-opacity="0.1"/>
<path d="M315.35 78.2761L372.123 182.489L369.175 184.297L312.44 80.0588L315.35 78.2761Z" fill="#03045E" fill-opacity="0.1"/>
<path d="M303.328 87.4426L383.617 172.562L381.222 175.105L300.967 89.9688L303.328 87.4426Z" fill="#03045E" fill-opacity="0.1"/>
<path d="M293.955 99.6436L392.266 159.819L390.609 162.894L292.285 102.732L293.955 99.6436Z" fill="#03045E" fill-opacity="0.1"/>
<path d="M287.892 113.959L397.575 145.142L396.685 148.564L287.027 117.431L287.892 113.959Z" fill="#03045E" fill-opacity="0.1"/>
<path d="M287.027 145.142L396.685 113.959L397.575 117.431L287.892 148.564L287.027 145.142Z" fill="#03045E" fill-opacity="0.1"/>
<path d="M292.285 159.831L390.609 99.6687L392.266 102.731L293.955 162.932L292.285 159.831Z" fill="#03045E" fill-opacity="0.1"/>
<path d="M300.967 172.563L381.248 87.4692L383.617 89.9827L303.328 175.119L300.967 172.563Z" fill="#03045E" fill-opacity="0.1"/>
<path d="M312.44 182.502L369.226 78.2761L372.123 80.0588L315.375 184.31L312.44 182.502Z" fill="#03045E" fill-opacity="0.1"/>
<path d="M325.992 188.983L355.37 72.7007L358.583 73.592L329.231 189.874L325.992 188.983Z" fill="#03045E" fill-opacity="0.1"/>
<path d="M399.054 129.484H285.495V133.091H399.054V129.484Z" fill="#03045E" fill-opacity="0.1"/>
<path d="M343.965 71.1458H340.6V191.508H343.965V71.1458Z" fill="#03045E" fill-opacity="0.1"/>
</svg>
