<svg width="414" height="337" viewBox="0 0 414 337" fill="none" xmlns="http://www.w3.org/2000/svg">
<path d="M367.992 170.777H319.512C309.313 170.777 282.168 171.804 291.368 141.301L291.282 141.118L297.079 124.214L310.159 85.2677C310.804 83.061 311.638 80.704 312.726 78.636L328.729 31.9665C317.429 25.3201 305.318 19.5557 292.488 14.8681C260.963 3.30108 261.626 16.7031 257.577 26.7774L218.068 144.242C202.689 190.277 225.39 194.1 254.239 194.1H365.293C364.105 199.661 362.529 205.107 360.616 210.437H200.414C189.791 210.437 160.715 211.564 173.646 176.907C186.806 137.699 206.549 78.3203 224.156 25.6387C228.087 13.6557 236.187 0 207.224 0C192.947 0 178.944 1.25966 165.306 3.48693C164.929 3.57544 164.575 3.61674 164.195 3.66099C162.48 3.96779 160.715 4.22149 158.983 4.54895L158.959 4.6227C155.243 5.35725 151.586 6.18916 147.956 7.08302C147.249 7.23642 146.577 7.37507 145.902 7.53438C140.713 8.84419 135.618 10.3605 130.6 11.983C128.882 12.5376 127.149 13.1335 125.472 13.7383C121.809 14.998 118.22 16.352 114.714 17.7916C113.178 18.417 111.611 19.007 110.123 19.6472C105.514 21.6414 100.997 23.7743 96.5853 26.0458C95.1355 26.7804 93.7829 27.5592 92.339 28.3527C89.1506 30.0638 86.0065 31.8898 82.9065 33.7542C81.3477 34.7277 79.78 35.6747 78.2595 36.6512C74.6527 38.9817 71.149 41.4125 67.7544 43.9318C66.6818 44.6959 65.6357 45.4983 64.6102 46.3066C61.2716 48.8761 58.0184 51.5488 54.8919 54.3218C53.5776 55.4812 52.3076 56.6524 51.0405 57.8383C48.465 60.2337 46.031 62.635 43.6382 65.119C42.6216 66.1957 41.5756 67.2577 40.5825 68.3433C37.4796 71.7359 34.5181 75.2523 31.7157 78.8484C30.8494 79.9901 30.0538 81.1642 29.1963 82.3501C27.1571 85.0966 25.2418 87.905 23.4089 90.7665C22.5514 92.0911 21.6909 93.4245 20.8717 94.7343C18.532 98.6519 16.3367 102.581 14.3683 106.667C14.0677 107.263 13.832 107.883 13.5491 108.478C12.2408 111.29 10.9354 114.128 9.80086 117.01L8.99051 119.414C8.33633 121.181 7.74699 122.996 7.15469 124.772L5.79916 128.674H6.02607C5.99366 128.719 5.9701 128.763 5.9701 128.804H5.75787L5.79622 128.674H5.78737C5.18034 130.728 4.70002 132.816 4.16371 134.884C3.96628 135.698 3.71582 136.536 3.51839 137.374C2.50177 141.808 1.73855 146.327 1.1492 150.885C1.04017 151.912 0.928223 152.959 0.810354 153.995C0.330035 158.717 0 163.464 0 168.284V168.314C0 261.266 92.7045 336.604 207.091 336.604C208.753 336.604 210.397 336.51 212.036 336.474C214.785 336.41 217.525 336.336 220.219 336.197C222.399 336.082 224.574 335.97 226.716 335.799C230.742 335.492 234.74 335.12 238.686 334.628C240.404 334.415 242.066 334.147 243.757 333.908C246.907 333.457 250.034 332.946 253.104 332.356C254.657 332.088 256.16 331.846 257.704 331.518C261.9 330.66 266.038 329.684 270.163 328.636C271.374 328.324 272.573 327.981 273.785 327.645C277.895 326.515 281.926 325.3 285.928 323.969C286.235 323.866 286.573 323.786 286.856 323.686C291.362 322.134 295.803 320.456 300.149 318.671C300.718 318.444 301.275 318.234 301.843 317.993C367.877 290.374 413.339 234.837 414.409 170.565H367.986V170.777H367.992ZM196.129 313.222C101.212 313.222 24.2163 248.316 24.2163 168.27C24.2163 154.546 26.5147 141.253 30.7374 128.66H30.7139C36.2508 113.24 44.8405 98.9381 55.8437 86.1674C56.9929 84.8429 58.0655 83.4888 59.2766 82.1701C59.8984 81.4798 60.6321 80.8456 61.2775 80.1611C74.3168 66.7946 90.2115 55.201 108.34 46.0854C109.451 45.5337 110.609 45.0086 111.788 44.4688C114.466 43.1884 117.221 41.9583 119.994 40.7724C124.647 38.8784 129.397 37.1556 134.28 35.5951C147.991 32.3412 146.494 40.3269 143.533 50.6933C127.561 98.5339 110.718 148.959 98.9662 183.887C83.5872 229.922 106.321 233.737 135.167 233.737H349.486C321.145 280.902 263.088 313.222 196.129 313.222Z" fill="white" fill-opacity="0.1"/>
<path d="M357.312 48.3838C368.589 48.3838 378.782 53.2425 386.19 61.066C393.565 68.8806 398.159 79.7308 398.159 91.6696C398.159 103.617 393.565 114.441 386.19 122.285C378.779 130.117 368.589 134.949 357.312 134.949C345.99 134.949 335.797 130.117 328.431 122.285C321.037 114.444 316.449 103.62 316.449 91.6696C316.449 79.7308 321.037 68.8776 328.431 61.066C335.797 53.2425 345.99 48.3838 357.312 48.3838ZM384.516 62.8301C377.571 55.4727 367.949 50.8825 357.312 50.8825C346.665 50.8825 337.079 55.4727 330.081 62.8301C323.118 70.1875 318.827 80.4182 318.827 91.6696C318.827 102.912 323.115 113.131 330.081 120.509C337.079 127.878 346.665 132.448 357.312 132.448C367.949 132.448 377.571 127.878 384.516 120.509C391.488 113.131 395.784 102.912 395.784 91.6696C395.784 80.4182 391.488 70.1904 384.516 62.8301Z" fill="white" fill-opacity="0.1"/>
<path d="M348.181 50.7441L368.694 131.947L366.43 132.599L345.883 51.3843L348.181 50.7441Z" fill="white" fill-opacity="0.1"/>
<path d="M338.48 54.6641L378.155 127.441L376.096 128.704L336.447 55.909L338.48 54.6641Z" fill="white" fill-opacity="0.1"/>
<path d="M330.08 61.0654L386.189 120.509L384.515 122.284L328.43 62.8295L330.08 61.0654Z" fill="white" fill-opacity="0.1"/>
<path d="M323.53 69.5859L392.233 111.609L391.075 113.757L322.363 71.7424L323.53 69.5859Z" fill="white" fill-opacity="0.1"/>
<path d="M319.292 79.583L395.942 101.36L395.32 103.75L318.688 82.0079L319.292 79.583Z" fill="white" fill-opacity="0.1"/>
<path d="M318.688 101.36L395.32 79.583L395.942 82.0079L319.292 103.75L318.688 101.36Z" fill="white" fill-opacity="0.1"/>
<path d="M322.363 111.618L391.075 69.6035L392.233 71.7423L323.53 113.783L322.363 111.618Z" fill="white" fill-opacity="0.1"/>
<path d="M328.43 120.509L384.533 61.084L386.189 62.8393L330.08 122.294L328.43 120.509Z" fill="white" fill-opacity="0.1"/>
<path d="M336.447 127.45L376.131 54.6641L378.155 55.909L338.498 128.713L336.447 127.45Z" fill="white" fill-opacity="0.1"/>
<path d="M345.918 131.976L366.448 50.7705L368.693 51.393L348.181 132.598L345.918 131.976Z" fill="white" fill-opacity="0.1"/>
<path d="M396.976 90.4248H317.617V92.9441H396.976V90.4248Z" fill="white" fill-opacity="0.1"/>
<path d="M358.477 49.6846H356.125V133.74H358.477V49.6846Z" fill="white" fill-opacity="0.1"/>
</svg>
