<svg width="64" height="64" viewBox="0 0 64 64" fill="none" xmlns="http://www.w3.org/2000/svg">
<path d="M49.3105 26.4713C49.4169 25.2677 49.1525 24.0767 48.5465 23.027C47.9405 21.9772 47.041 21.1528 45.9456 20.6431C45.0233 20.2137 44.3663 19.5567 43.937 18.6343C43.4271 17.539 42.6028 16.6396 41.5531 16.0336C40.5035 15.4276 39.3124 15.163 38.1088 15.2695C37.0963 15.3588 36.1979 15.1185 35.3648 14.5342C34.3754 13.8406 33.2119 13.4738 31.9999 13.4738C30.7879 13.4738 29.6244 13.8406 28.635 14.5342C27.8023 15.1182 26.9048 15.3586 25.8913 15.2695C24.6873 15.1632 23.4965 15.4276 22.4468 16.0335C21.3973 16.6395 20.5728 17.5388 20.0629 18.6343C19.6335 19.5566 18.9766 20.2137 18.0543 20.643C16.9589 21.1528 16.0596 21.9771 15.4534 23.027C14.8474 24.0765 14.5831 25.2675 14.6894 26.4712C14.7788 27.4846 14.5383 28.3822 13.9541 29.2151C13.2604 30.2042 12.8938 31.3677 12.8938 32.5801C12.8938 33.7925 13.2605 34.9556 13.9541 35.945C14.5383 36.778 14.7788 37.6754 14.6894 38.6889C14.5831 39.8927 14.8475 41.0837 15.4534 42.1332C16.0596 43.183 16.9589 44.0073 18.0543 44.5171C18.2838 44.6234 18.5038 44.7494 18.7116 44.8936L14.7761 59.5815C14.7384 59.7222 14.7425 59.8709 14.788 60.0094C14.8334 60.1478 14.9182 60.2701 15.032 60.3611C15.1457 60.4522 15.2836 60.5081 15.4286 60.5221C15.5737 60.5361 15.7197 60.5075 15.8488 60.4398L22.1573 57.1337L25.9673 63.1512C26.0452 63.2743 26.1574 63.3721 26.29 63.4325C26.4226 63.4929 26.5699 63.5134 26.714 63.4914C26.8581 63.4695 26.9926 63.406 27.1012 63.3088C27.2098 63.2116 27.2877 63.0848 27.3254 62.9441L30.4011 51.4655C30.9166 51.6111 31.4533 51.6863 32 51.6863C32.5468 51.6863 33.0834 51.6111 33.5989 51.4655L36.6745 62.9441C36.7172 63.1036 36.8114 63.2446 36.9424 63.3451C37.0734 63.4456 37.234 63.5 37.3991 63.5C37.5256 63.4999 37.6499 63.4679 37.7607 63.407C37.8714 63.346 37.965 63.258 38.0326 63.1512L41.8428 57.1337L48.1513 60.4398C48.2803 60.5075 48.4263 60.5361 48.5714 60.5221C48.7164 60.5081 48.8543 60.4522 48.968 60.3611C49.0818 60.2701 49.1666 60.1478 49.212 60.0094C49.2575 59.8709 49.2616 59.7222 49.2239 59.5815L45.2884 44.8936C45.4963 44.7494 45.7163 44.6234 45.9459 44.5171C47.0411 44.0072 47.9404 43.183 48.5466 42.1332C49.1528 41.0835 49.417 39.8924 49.3106 38.6889C49.2213 37.6754 49.4618 36.778 50.0459 35.9451C50.7398 34.9558 51.1064 33.7922 51.1064 32.5801C51.1064 31.368 50.7396 30.2043 50.0459 29.2152C49.4618 28.3822 49.2213 27.4847 49.3106 26.4713H49.3105ZM26.3191 60.9033L23.0546 55.7475C22.9539 55.5884 22.797 55.473 22.6151 55.4243C22.4332 55.3756 22.2397 55.397 22.0729 55.4845L16.6678 58.3172L19.9078 46.2251C19.962 46.3224 20.0144 46.422 20.0628 46.5261C20.5726 47.6215 21.397 48.5208 22.4466 49.1268C23.4963 49.7327 24.686 49.9973 25.8911 49.8908C26.905 49.8017 27.802 50.042 28.635 50.6261C28.7564 50.7112 28.8809 50.7916 29.0084 50.8673L26.3191 60.9033ZM41.9268 55.4845C41.76 55.397 41.5664 55.3756 41.3845 55.4243C41.2027 55.473 41.0458 55.5884 40.945 55.7475L37.6804 60.9033L34.9914 50.8673C35.1188 50.7916 35.2434 50.711 35.3648 50.6259C36.1979 50.0417 37.0958 49.8016 38.1088 49.8907C39.3128 49.997 40.5034 49.7326 41.5531 49.1266C42.6028 48.5206 43.427 47.6212 43.937 46.5257C43.9854 46.4217 44.0378 46.3221 44.092 46.2248L47.332 58.3171L41.9269 55.4843L41.9268 55.4845ZM48.8176 35.0838C48.0221 36.2182 47.6946 37.4406 47.8163 38.8208C47.8953 39.7157 47.6986 40.6018 47.2473 41.3833C46.7961 42.1647 46.127 42.7782 45.3125 43.1573C44.0563 43.7421 43.1615 44.6368 42.5769 45.8928C42.1976 46.7075 41.5843 47.3766 40.8029 47.8277C40.0214 48.2787 39.135 48.4753 38.2404 48.3967C36.8601 48.2748 35.6379 48.6025 34.5034 49.398C33.7676 49.9138 32.9019 50.1866 31.9996 50.1866C31.0974 50.1866 30.2315 49.9138 29.496 49.3981C28.5149 48.7099 27.4679 48.3721 26.31 48.3721C26.1293 48.3721 25.9456 48.3803 25.7591 48.3968C24.8645 48.4756 23.978 48.2789 23.1965 47.8279C22.4151 47.3767 21.8016 46.7077 21.4225 45.8932C20.8379 44.6371 19.9431 43.7422 18.687 43.1576C17.8724 42.7785 17.2034 42.165 16.7521 41.3836C16.301 40.6023 16.1043 39.7162 16.1831 38.8211C16.3049 37.4408 15.9774 36.2186 15.1819 35.0842C14.666 34.3485 14.3933 33.4827 14.3933 32.5805C14.3933 31.6782 14.6659 30.8122 15.1818 30.0767C15.9773 28.9423 16.3048 27.72 16.1831 26.3398C16.1043 25.4447 16.3009 24.5586 16.7521 23.7773C17.2033 22.9958 17.8724 22.3823 18.6869 22.0032C19.943 21.4186 20.8379 20.5238 21.4225 19.2677C21.8018 18.453 22.4151 17.784 23.1965 17.3328C23.978 16.8818 24.8645 16.6851 25.7591 16.7638C27.1398 16.8861 28.3618 16.558 29.496 15.7625C30.2318 15.2466 31.0975 14.974 31.9998 14.974C32.902 14.974 33.7679 15.2466 34.5034 15.7625C35.6378 16.5581 36.8594 16.886 38.2404 16.7638C39.1349 16.6847 40.0214 16.8816 40.8029 17.3328C41.5843 17.784 42.1978 18.453 42.5769 19.2676C43.1615 20.5236 44.0563 21.4186 45.3124 22.0032C46.127 22.3823 46.796 22.9958 47.2473 23.7772C47.6985 24.5586 47.8953 25.4447 47.8163 26.3397C47.6945 27.7198 48.022 28.9422 48.8176 30.0767C49.3335 30.8123 49.6063 31.6781 49.6063 32.5803C49.6063 33.4826 49.3335 34.3484 48.8176 35.0841V35.0838ZM31.9998 19.9975C25.0616 19.9975 19.417 25.6421 19.417 32.5802C19.417 39.5183 25.0616 45.163 31.9998 45.163C38.9379 45.163 44.5825 39.5183 44.5825 32.5802C44.5825 25.6421 38.9379 19.9975 31.9998 19.9975ZM31.9998 43.663C28.6581 43.663 25.6571 42.1763 23.6235 39.8298C24.1195 37.655 26.3591 36.066 29.7128 35.5245C30.4121 35.8366 31.1858 36.0116 31.9998 36.0116C32.8138 36.0116 33.5874 35.8366 34.2868 35.5245C37.6403 36.066 39.8799 37.655 40.376 39.8298C38.3423 42.1763 35.3414 43.663 31.9998 43.663ZM31.9998 34.5117C29.7214 34.5117 27.8678 32.6582 27.8678 30.3798C27.8678 28.1014 29.7214 26.248 31.9998 26.248C34.2781 26.248 36.1316 28.1014 36.1316 30.3798C36.1316 32.6582 34.2781 34.5117 31.9998 34.5117ZM41.4509 38.3624C40.5745 36.4869 38.6541 35.0751 35.9848 34.3554C37.0018 33.3361 37.6315 31.9302 37.6315 30.38C37.6315 27.2746 35.105 24.7481 31.9996 24.7481C28.8943 24.7481 26.3676 27.2745 26.3676 30.38C26.3676 31.9302 26.9974 33.3361 28.0144 34.3554C25.345 35.0751 23.4246 36.4869 22.5484 38.3624C21.5141 36.6781 20.9169 34.6977 20.9169 32.5803C20.9169 26.4692 25.8885 21.4976 31.9996 21.4976C38.1108 21.4976 43.0824 26.4692 43.0824 32.5803C43.0824 34.6977 42.4851 36.6781 41.4508 38.3626L41.4509 38.3624ZM26.2203 5.67008L28.8048 7.8562L27.9989 11.144C27.9634 11.2886 27.9717 11.4406 28.0229 11.5805C28.0741 11.7204 28.1659 11.8419 28.2864 11.9294C28.4069 12.017 28.5508 12.0667 28.6996 12.0721C28.8485 12.0776 28.9956 12.0386 29.1223 11.9601L32 10.1777L34.8778 11.9601C35.0043 12.0386 35.1514 12.0776 35.3003 12.0721C35.4491 12.0666 35.593 12.0169 35.7134 11.9292C35.8339 11.8417 35.9256 11.7202 35.9768 11.5804C36.028 11.4405 36.0364 11.2886 36.001 11.144L35.1951 7.8562L37.7798 5.67008C37.8934 5.57385 37.9758 5.44598 38.0165 5.30275C38.0572 5.15952 38.0544 5.00741 38.0084 4.8658C37.9624 4.72419 37.8752 4.59947 37.7581 4.50754C37.641 4.41561 37.4991 4.36062 37.3506 4.34958L33.9748 4.09995L32.6941 0.96645C32.6378 0.828537 32.5417 0.710518 32.4181 0.627442C32.2944 0.544367 32.1488 0.5 31.9999 0.5C31.8509 0.5 31.7053 0.544367 31.5817 0.627442C31.458 0.710518 31.3619 0.828537 31.3056 0.96645L30.0251 4.09995L26.6493 4.34958C26.5007 4.3605 26.3588 4.41543 26.2415 4.50734C26.1243 4.59926 26.0371 4.72401 25.9911 4.86567C25.9451 5.00734 25.9423 5.1595 25.9831 5.30277C26.0238 5.44603 26.1064 5.5739 26.2201 5.67008H26.2203ZM30.599 5.56158C30.7382 5.55134 30.8717 5.50246 30.9846 5.42044C31.0974 5.33842 31.1852 5.22651 31.2379 5.09733L31.9999 3.2327L32.762 5.09733C32.8148 5.22648 32.9025 5.33835 33.0154 5.42037C33.1282 5.50238 33.2617 5.55128 33.4009 5.56158L35.4096 5.71008L33.8716 7.01095C33.7651 7.10107 33.6859 7.2191 33.6428 7.35179C33.5997 7.48449 33.5944 7.62657 33.6276 7.76208L34.1071 9.71845L32.3948 8.65795C32.2762 8.58447 32.1394 8.54554 31.9999 8.54554C31.8604 8.54554 31.7236 8.58447 31.605 8.65795L29.8926 9.71845L30.3721 7.76208C30.4053 7.62657 30.4001 7.48449 30.357 7.35179C30.3139 7.2191 30.2346 7.10107 30.1281 7.01095L28.5903 5.71008L30.599 5.56158ZM13.5394 12.1652L16.8706 12.7662L17.8166 16.0164C17.8583 16.1594 17.9416 16.2867 18.0558 16.3822C18.1701 16.4777 18.3102 16.537 18.4583 16.5526C18.6064 16.5681 18.7558 16.5393 18.8874 16.4697C19.0191 16.4001 19.127 16.2929 19.1975 16.1617L20.7986 13.1791L24.1821 13.2838C24.331 13.2884 24.4779 13.2486 24.604 13.1694C24.7302 13.0902 24.8299 12.9753 24.8905 12.8392C24.9511 12.7032 24.9698 12.5521 24.9442 12.4054C24.9186 12.2587 24.8499 12.1229 24.7469 12.0153L22.4051 9.57108L23.5503 6.38558C23.6006 6.24541 23.6082 6.09342 23.5718 5.94897C23.5355 5.80452 23.457 5.67416 23.3463 5.57449C23.2356 5.47483 23.0978 5.41038 22.9503 5.38936C22.8029 5.36833 22.6525 5.39169 22.5184 5.45645L19.4699 6.92833L16.7941 4.85495C16.6764 4.76376 16.5342 4.70969 16.3856 4.69962C16.237 4.68955 16.0888 4.72393 15.9599 4.7984C15.8309 4.87286 15.727 4.98403 15.6615 5.11774C15.5959 5.25145 15.5716 5.40165 15.5918 5.5492L16.0496 8.9032L13.2506 10.8072C13.1275 10.891 13.0321 11.0095 12.9766 11.1477C12.9211 11.2859 12.908 11.4375 12.939 11.5832C12.9699 11.7289 13.0436 11.8621 13.1505 11.9657C13.2574 12.0694 13.3928 12.1388 13.5394 12.1652ZM17.2774 9.88183C17.3927 9.80336 17.4839 9.69426 17.5407 9.56679C17.5974 9.43933 17.6174 9.29856 17.5985 9.16033L17.326 7.16458L18.9183 8.39832C19.0285 8.48375 19.1605 8.53674 19.2992 8.55133C19.4379 8.56593 19.578 8.54156 19.7036 8.48095L21.5176 7.60508L20.8363 9.5007C20.7891 9.63202 20.7794 9.77389 20.8084 9.91038C20.8375 10.0469 20.904 10.1726 21.0005 10.2733L22.3939 11.7278L20.3806 11.6655C20.2412 11.6615 20.1035 11.6964 19.9827 11.7661C19.862 11.8358 19.7629 11.9377 19.6966 12.0603L18.7439 13.8352L18.1809 11.9011C18.1419 11.7671 18.0663 11.6467 17.9626 11.5533C17.859 11.46 17.7313 11.3974 17.594 11.3726L15.6118 11.015L17.2773 9.88195L17.2774 9.88183ZM15.5814 19.7778C15.7126 19.7074 15.8199 19.5995 15.8896 19.4678C15.9593 19.3362 15.9882 19.1867 15.9726 19.0386C15.9571 18.8904 15.8977 18.7503 15.8022 18.636C15.7067 18.5217 15.5793 18.4384 15.4363 18.3968L12.186 17.4508L11.5849 14.1196C11.5585 13.9729 11.4891 13.8375 11.3854 13.7305C11.2817 13.6235 11.1485 13.5498 11.0028 13.5189C10.8571 13.4879 10.7054 13.501 10.5672 13.5566C10.429 13.6122 10.3105 13.7077 10.2268 13.831L8.32288 16.6298L4.96876 16.172C4.82116 16.1517 4.6709 16.176 4.53713 16.2415C4.40335 16.3071 4.29213 16.411 4.21765 16.54C4.14317 16.669 4.1088 16.8172 4.11892 16.9659C4.12905 17.1145 4.18321 17.2567 4.27451 17.3745L6.34801 20.0502L4.87613 23.0986C4.81139 23.2327 4.78804 23.383 4.80906 23.5305C4.83008 23.6779 4.89452 23.8158 4.99417 23.9264C5.09381 24.0371 5.22415 24.1156 5.36858 24.152C5.513 24.1883 5.66498 24.1808 5.80513 24.1305L8.99063 22.9853L11.4351 25.3272C11.5426 25.4303 11.6785 25.4991 11.8252 25.5247C11.972 25.5503 12.1231 25.5316 12.2592 25.471C12.3953 25.4104 12.5102 25.3106 12.5894 25.1844C12.6685 25.0582 12.7082 24.9112 12.7035 24.7623L12.5988 21.3788L15.5814 19.7778ZM11.48 20.277C11.3571 20.343 11.255 20.4419 11.1853 20.5628C11.1155 20.6836 11.0808 20.8215 11.0851 20.961L11.1475 22.9742L9.69288 21.5807C9.59214 21.4842 9.46648 21.4178 9.33004 21.3888C9.1936 21.3598 9.05177 21.3694 8.92051 21.4166L7.02488 22.098L7.90076 20.2841C7.9614 20.1584 7.9858 20.0183 7.9712 19.8796C7.9566 19.7408 7.90359 19.6089 7.81813 19.4986L6.58438 17.9065L8.58026 18.1788C8.71849 18.1977 8.85925 18.1776 8.9867 18.1208C9.11415 18.0641 9.22326 17.9729 9.30176 17.8576L10.4346 16.1922L10.7923 18.1745C10.817 18.3118 10.8796 18.4394 10.973 18.5431C11.0664 18.6468 11.1868 18.7223 11.3208 18.7613L13.2549 19.3242L11.48 20.277ZM39.8175 13.2837L43.2009 13.179L44.802 16.1616C44.8725 16.2928 44.9804 16.4 45.112 16.4697C45.2437 16.5393 45.3931 16.5682 45.5412 16.5526C45.6893 16.5371 45.8295 16.4777 45.9437 16.3822C46.058 16.2867 46.1413 16.1593 46.1829 16.0163L47.1289 12.7661L50.4601 12.1651C50.6067 12.1386 50.742 12.0691 50.8489 11.9654C50.9558 11.8617 51.0294 11.7286 51.0603 11.5829C51.0913 11.4373 51.0782 11.2857 51.0228 11.1475C50.9673 11.0093 50.872 10.8908 50.7489 10.807L47.95 8.90295L48.4078 5.54895C48.4279 5.4014 48.4036 5.2512 48.338 5.11749C48.2725 4.98378 48.1686 4.87261 48.0397 4.79815C47.9107 4.72368 47.7625 4.6893 47.6139 4.69937C47.4653 4.70944 47.3231 4.76351 47.2054 4.8547L44.5296 6.92808L41.4811 5.4562C41.347 5.39144 41.1966 5.36808 41.0492 5.38911C40.9017 5.41013 40.7639 5.47458 40.6532 5.57424C40.5425 5.67391 40.464 5.80427 40.4277 5.94872C40.3914 6.09317 40.3989 6.24516 40.4493 6.38533L41.5945 9.57083L39.2528 12.0151C39.1497 12.1226 39.081 12.2584 39.0554 12.4051C39.0298 12.5519 39.0485 12.7029 39.1091 12.839C39.2329 13.1172 39.5098 13.2914 39.8175 13.2837ZM43.1634 9.50058L42.4819 7.60495L44.2959 8.48083C44.4215 8.54147 44.5616 8.56587 44.7003 8.55127C44.8391 8.53668 44.971 8.48367 45.0813 8.3982L46.6735 7.16433L46.401 9.16008C46.3821 9.29832 46.4022 9.43908 46.459 9.56654C46.5157 9.694 46.6069 9.8031 46.7223 9.88158L48.3876 11.0146L46.4054 11.3722C46.2681 11.397 46.1404 11.4595 46.0367 11.5529C45.933 11.6463 45.8575 11.7667 45.8185 11.9007L45.2555 13.8348L44.3029 12.0601C44.2388 11.9406 44.1435 11.8408 44.0271 11.7712C43.9108 11.7016 43.7778 11.6649 43.6423 11.6648C43.6345 11.6648 43.6268 11.6648 43.6189 11.6652L41.6056 11.7276L42.999 10.2731C43.0955 10.1723 43.1621 10.0466 43.1911 9.91013C43.2201 9.77364 43.2105 9.63177 43.1633 9.50045L43.1634 9.50058ZM59.7819 16.54C59.7074 16.411 59.5961 16.3071 59.4624 16.2416C59.3287 16.176 59.1785 16.1517 59.0309 16.1718L55.6769 16.6297L53.7729 13.8308C53.6891 13.7077 53.5705 13.6124 53.4323 13.5568C53.2941 13.5013 53.1426 13.4882 52.9969 13.5191C52.8512 13.55 52.718 13.6236 52.6143 13.7306C52.5107 13.8375 52.4412 13.9729 52.4148 14.1195L51.8136 17.4507L48.5634 18.3967C48.4204 18.4383 48.293 18.5216 48.1974 18.6359C48.1019 18.7502 48.0426 18.8903 48.027 19.0385C48.0114 19.1866 48.0403 19.336 48.11 19.4677C48.1797 19.5993 48.287 19.7073 48.4183 19.7777L51.4008 21.3787L51.296 24.7622C51.2914 24.9111 51.3312 25.0579 51.4104 25.1841C51.4895 25.3102 51.6045 25.4099 51.7405 25.4705C51.8766 25.5311 52.0276 25.5498 52.1743 25.5243C52.321 25.4987 52.4568 25.4301 52.5644 25.3271L55.0089 22.9852L58.1944 24.1303C58.3345 24.1807 58.4865 24.1883 58.631 24.152C58.7755 24.1157 58.9058 24.0371 59.0055 23.9264C59.1052 23.8158 59.1696 23.6779 59.1906 23.5304C59.2116 23.3829 59.1882 23.2326 59.1234 23.0985L57.6515 20.0501L59.725 17.3743C59.8163 17.2566 59.8704 17.1144 59.8805 16.9658C59.8906 16.8172 59.8562 16.6689 59.7818 16.54H59.7819ZM56.0989 20.284L56.9748 22.0978L55.0791 21.4165C54.9478 21.3692 54.806 21.3596 54.6695 21.3886C54.533 21.4176 54.4074 21.4841 54.3066 21.5806L52.852 22.9741L52.9144 20.9608C52.9187 20.8214 52.884 20.6835 52.8143 20.5626C52.7445 20.4418 52.6424 20.3428 52.5195 20.2768L50.7448 19.3241L52.6789 18.7612C52.8128 18.7222 52.9333 18.6466 53.0266 18.5429C53.12 18.4393 53.1826 18.3116 53.2074 18.1743L53.565 16.1921L54.698 17.8576C54.7765 17.9729 54.8857 18.064 55.0131 18.1207C55.1405 18.1775 55.2813 18.1976 55.4195 18.1788L57.4153 17.9065L56.1815 19.4986C56.096 19.6089 56.043 19.7408 56.0284 19.8796C56.0138 20.0183 56.0382 20.1584 56.0989 20.2841V20.284Z" fill="#818181"/>
</svg>
