<svg width="60" height="60" viewBox="0 0 60 60" fill="none" xmlns="http://www.w3.org/2000/svg">
<path d="M4.28022 42.1875L8.41366 40.2439C8.6107 40.1529 8.8357 40.1433 9.03976 40.2173C9.24383 40.2912 9.41048 40.4426 9.50351 40.6387L15.7944 54.0142C15.8001 54.0274 15.8061 54.0405 15.8129 54.0536L15.9012 54.2411C15.9935 54.4381 16.0039 54.6637 15.93 54.8684C15.8561 55.0731 15.704 55.2401 15.5071 55.3328L11.3752 57.2766C11.2631 57.3285 11.1622 57.402 11.0786 57.493C10.995 57.5841 10.9302 57.6907 10.8879 57.8069C10.8457 57.923 10.8268 58.0464 10.8324 58.1698C10.838 58.2933 10.8679 58.4145 10.9205 58.5263C10.9731 58.6382 11.0473 58.7385 11.1388 58.8216C11.2303 58.9047 11.3374 58.9688 11.4538 59.0103C11.5702 59.0519 11.6937 59.07 11.8171 59.0637C11.9405 59.0573 12.0615 59.0266 12.173 58.9733L16.3051 57.0301C16.8483 56.7741 17.2907 56.3443 17.5622 55.8087C17.8337 55.2731 17.919 54.6623 17.8044 54.0728C19.2513 53.4626 21.7742 53.2876 22.2926 53.3557L23.4411 53.5221C24.4386 53.674 25.457 53.6131 26.4294 53.3434C26.9089 53.2145 27.5876 53.0454 28.3739 52.849C32.949 51.7058 37.5496 50.4991 39.149 49.4177L55.4792 38.3858C56.265 37.8529 56.8076 37.0303 56.9881 36.0981C57.1686 35.166 56.9722 34.2003 56.442 33.4126C55.9841 32.7398 55.3114 32.2423 54.5339 32.0017C53.7564 31.7611 52.9202 31.7917 52.1623 32.0884C51.9237 31.6328 51.5852 31.2371 51.172 30.9308C50.7589 30.6245 50.2819 30.4156 49.7766 30.3197C49.3421 30.2342 48.8948 30.2365 48.4611 30.3265C48.0274 30.4165 47.6161 30.5924 47.2515 30.8438L47.2112 30.8714C47.2091 30.8684 47.2072 30.8651 47.2051 30.8619C46.9632 30.4943 46.65 30.1789 46.284 29.9345C45.918 29.6901 45.5067 29.5216 45.0745 29.439C44.6529 29.3554 44.2189 29.3573 43.798 29.4445C43.3772 29.5317 42.9781 29.7024 42.6244 29.9466L40.8917 31.1367C40.4381 30.4699 39.7383 30.0104 38.9461 29.8593C38.1539 29.7081 37.334 29.8777 36.6667 30.3306L29.8398 35.0089L28.9068 34.5918C25.1356 32.8829 20.2979 33.975 17.3012 35.4294C14.4977 36.7896 13.0971 37.7631 11.1585 39.1104L10.8697 39.311C10.4923 38.8359 9.96568 38.502 9.375 38.3634C8.78431 38.2248 8.16413 38.2895 7.61479 38.5471L3.48229 40.4909C3.2598 40.5982 3.08866 40.789 3.00608 41.0218C2.9235 41.2547 2.93615 41.5107 3.04129 41.7342C3.14642 41.9578 3.33554 42.1308 3.56753 42.2157C3.79953 42.3005 4.05565 42.2904 4.28022 42.1875ZM49.4244 32.1607C49.673 32.2075 49.9063 32.3149 50.1036 32.4733C50.3008 32.6318 50.456 32.8364 50.5553 33.0691L45.2819 36.6338C44.8142 36.1607 44.2322 35.8166 43.5923 35.6348L48.3149 32.3888C48.4753 32.2787 48.6561 32.2018 48.8466 32.1626C49.0371 32.1235 49.2336 32.1229 49.4244 32.1608V32.1607ZM43.6879 31.4912C43.8369 31.3887 44.005 31.3172 44.1821 31.2809C44.3592 31.2445 44.5419 31.2441 44.7192 31.2796C44.9075 31.3159 45.0865 31.3898 45.2458 31.4967C45.4049 31.6036 45.541 31.7415 45.6459 31.9021C45.6529 31.9126 45.6584 31.9236 45.6652 31.9343L39.4989 36.1732L38.1435 36.5365C37.4037 36.7381 36.6414 36.8458 35.8747 36.857L43.6879 31.4912ZM37.726 31.8779C37.8513 31.7924 37.9924 31.7326 38.1411 31.7022C38.2897 31.6717 38.4429 31.6712 38.5918 31.7006C38.7444 31.7292 38.8897 31.7879 39.0192 31.8733C39.1488 31.9588 39.26 32.0693 39.3462 32.1983L33.1744 36.4373C32.8436 36.3307 32.5187 36.2064 32.2012 36.0649L31.8471 35.9066L37.726 31.8779ZM18.1197 37.1162C20.2387 36.0878 24.7323 34.7585 28.1373 36.3014L31.4367 37.7768C33.7883 38.8255 36.1406 39.0123 38.6288 38.3476L42.0467 37.4309C42.5435 37.3099 43.0678 37.388 43.5077 37.6487C43.9475 37.9094 44.2679 38.3318 44.4002 38.8257C44.5326 39.3195 44.4664 39.8455 44.2159 40.2912C43.9654 40.7369 43.5504 41.0669 43.0597 41.2105L31.2037 44.3906C31.0846 44.4223 30.9728 44.4772 30.8749 44.5521C30.777 44.627 30.6948 44.7205 30.6331 44.8272C30.5714 44.9339 30.5313 45.0517 30.5152 45.174C30.499 45.2962 30.5072 45.4204 30.5391 45.5395C30.571 45.6585 30.6261 45.7701 30.7012 45.8679C30.7764 45.9656 30.87 46.0476 30.9769 46.1091C31.0837 46.1706 31.2016 46.2105 31.3239 46.2263C31.4461 46.2422 31.5703 46.2338 31.6893 46.2016L43.5449 43.0227C44.5254 42.7579 45.361 42.1154 45.8688 41.2359C46.3765 40.3564 46.5152 39.3115 46.2543 38.33C46.2475 38.3048 46.2394 38.2802 46.2322 38.2552L52.5189 34.0057C52.8944 33.7536 53.3543 33.6601 53.7984 33.7457C54.2425 33.8314 54.6347 34.0891 54.8895 34.4627C55.1412 34.8383 55.2342 35.2981 55.1483 35.7419C55.0624 36.1857 54.8046 36.5776 54.431 36.8321L38.1001 47.8643C36.641 48.8509 30.968 50.2684 27.9203 51.0299C27.126 51.2284 26.44 51.3997 25.9455 51.5321C25.2178 51.7362 24.4549 51.7819 23.708 51.6661L22.5637 51.5003C21.9275 51.4065 19.0481 51.5176 17.0818 52.345L11.7408 40.9895C11.9075 40.874 12.0701 40.7612 12.2286 40.6509C14.0973 39.3516 15.4477 38.4132 18.1197 37.1168V37.1162ZM20.5739 24.4342H24.0104L26.4948 28.0504C26.5809 28.1757 26.6962 28.2782 26.8307 28.349C26.9653 28.4199 27.1151 28.4569 27.2671 28.457C27.4192 28.457 27.569 28.42 27.7035 28.3493C27.8381 28.2785 27.9535 28.1761 28.0396 28.0508L30.5274 24.4342H42.1959C43.4216 24.4331 44.5968 23.9459 45.4638 23.0796C46.3307 22.2132 46.8187 21.0383 46.8207 19.8127V5.55891C46.8187 4.33332 46.3308 3.15853 45.4638 2.29219C44.5969 1.42586 43.4218 0.938677 42.1962 0.9375H20.5739C19.3482 0.938522 18.1729 1.42563 17.3059 2.29199C16.4388 3.15834 15.9508 4.33321 15.9488 5.55891V19.8132C15.9508 21.039 16.4388 22.2139 17.3058 23.0802C18.1729 23.9466 19.3481 24.4337 20.5739 24.4348V24.4342ZM17.8238 5.55891C17.8251 4.83028 18.1154 4.13191 18.6309 3.61703C19.1465 3.10215 19.8452 2.81281 20.5739 2.8125H42.1962C42.9249 2.81287 43.6236 3.10225 44.1391 3.61715C44.6546 4.13205 44.9448 4.83041 44.946 5.55902V19.8132C44.9448 20.5419 44.6546 21.2402 44.1391 21.7551C43.6236 22.27 42.9249 22.5594 42.1962 22.5598H30.0348C29.8827 22.5597 29.7329 22.5967 29.5984 22.6675C29.4638 22.7382 29.3484 22.8407 29.2623 22.9659L27.268 25.8652L25.2769 22.9664C25.1908 22.841 25.0754 22.7385 24.9408 22.6676C24.8062 22.5968 24.6563 22.5598 24.5042 22.5598H20.5739C19.8452 22.5595 19.1464 22.2701 18.6309 21.7552C18.1153 21.2403 17.8251 20.5419 17.8238 19.8132V5.55891ZM20.7577 9.39715C20.6687 9.31189 20.5974 9.20991 20.5478 9.09705C20.4982 8.98419 20.4714 8.86266 20.4689 8.73942C20.4663 8.61618 20.4881 8.49365 20.533 8.37885C20.5779 8.26404 20.6449 8.1592 20.7304 8.07035C20.8158 7.98149 20.9179 7.91035 21.0309 7.861C21.1438 7.81165 21.2654 7.78507 21.3886 7.78276C21.5119 7.78045 21.6344 7.80247 21.7491 7.84756C21.8638 7.89264 21.9685 7.95991 22.0572 8.04551L23.2571 9.19922L26.1929 5.98043C26.2756 5.88848 26.3757 5.81381 26.4873 5.7607C26.599 5.7076 26.7201 5.67711 26.8436 5.671C26.9671 5.6649 27.0906 5.68328 27.207 5.72511C27.3234 5.76693 27.4303 5.83137 27.5217 5.91471C27.6131 5.99804 27.687 6.09863 27.7394 6.21068C27.7917 6.32273 27.8213 6.44402 27.8266 6.56757C27.8318 6.69113 27.8126 6.8145 27.7699 6.93058C27.7273 7.04666 27.6621 7.15316 27.5782 7.24395L23.9939 11.1736C23.9094 11.266 23.8074 11.3406 23.6937 11.3929C23.58 11.4452 23.457 11.4743 23.3319 11.4783H23.3012C23.0589 11.4783 22.8261 11.3845 22.6515 11.2166L20.7577 9.39715ZM30.6748 6.61195C30.6748 6.36331 30.7736 6.12486 30.9494 5.94904C31.1252 5.77322 31.3637 5.67445 31.6123 5.67445H41.3623C41.611 5.67445 41.8494 5.77322 42.0252 5.94904C42.2011 6.12486 42.2998 6.36331 42.2998 6.61195C42.2998 6.86059 42.2011 7.09905 42.0252 7.27487C41.8494 7.45068 41.611 7.54945 41.3623 7.54945H31.6123C31.3637 7.54939 31.1253 7.45059 30.9496 7.27478C30.7738 7.09897 30.6751 6.86055 30.6751 6.61195H30.6748ZM30.6748 10.6614C30.6748 10.4127 30.7736 10.1743 30.9494 9.99845C31.1252 9.82264 31.3637 9.72387 31.6123 9.72387H41.3623C41.611 9.72387 41.8494 9.82264 42.0252 9.99845C42.2011 10.1743 42.2998 10.4127 42.2998 10.6614C42.2998 10.91 42.2011 11.1485 42.0252 11.3243C41.8494 11.5001 41.611 11.5989 41.3623 11.5989H31.6123C31.3637 11.5988 31.1253 11.5 30.9496 11.3242C30.7738 11.1484 30.6751 10.91 30.6751 10.6614H30.6748ZM20.4699 14.7108C20.4699 14.4621 20.5687 14.2237 20.7445 14.0479C20.9203 13.8721 21.1588 13.7733 21.4074 13.7733H41.3624C41.6111 13.7733 41.8495 13.8721 42.0254 14.0479C42.2012 14.2237 42.2999 14.4621 42.2999 14.7108C42.2999 14.9594 42.2012 15.1979 42.0254 15.3737C41.8495 15.5495 41.6111 15.6483 41.3624 15.6483H21.4076C21.159 15.6483 20.9205 15.5495 20.7447 15.3737C20.5689 15.1979 20.4701 14.9594 20.4701 14.7108H20.4699ZM20.4699 18.7602C20.4699 18.5116 20.5687 18.2731 20.7445 18.0973C20.9203 17.9215 21.1588 17.8227 21.4074 17.8227H41.3624C41.6111 17.8227 41.8495 17.9215 42.0254 18.0973C42.2012 18.2731 42.2999 18.5116 42.2999 18.7602C42.2999 19.0088 42.2012 19.2473 42.0254 19.4231C41.8495 19.5989 41.6111 19.6977 41.3624 19.6977H21.4076C21.159 19.6977 20.9205 19.5989 20.7447 19.4231C20.5689 19.2473 20.4701 19.0088 20.4701 18.7602H20.4699Z" fill="#ED1C24"/>
</svg>
