<svg width="195" height="62" viewBox="0 0 195 62" fill="none" xmlns="http://www.w3.org/2000/svg">
<g clip-path="url(#clip0_36001_518)">
<path d="M48.5909 52.0149C48.766 52.179 48.9739 52.2993 49.2036 52.3868C49.4225 52.4743 49.6851 52.5071 49.9695 52.5071H50.0243C50.4291 52.5071 50.823 52.4087 51.2169 52.2227C51.6108 52.0368 51.9718 51.7743 52.311 51.4572C52.6502 51.1291 52.9456 50.7791 53.1973 50.3744C53.449 49.9698 53.635 49.5651 53.7553 49.1495C53.81 48.9527 53.8538 48.7667 53.8647 48.5808C53.8757 48.3949 53.8757 48.198 53.8647 48.0121C53.8319 47.6403 53.7334 47.3122 53.5693 47.0059C53.4927 46.8638 53.3942 46.7216 53.2739 46.6122C53.1645 46.4919 53.0332 46.3935 52.8909 46.306C52.6065 46.131 52.2673 46.0544 51.8624 46.0544C51.6545 46.0544 51.4467 46.0763 51.2388 46.131C51.0309 46.1747 50.823 46.2513 50.626 46.3388C50.2212 46.5138 49.8601 46.7653 49.5319 47.0606C49.2036 47.3559 48.9301 47.6731 48.7003 48.0121C48.569 48.198 48.4706 48.384 48.383 48.5371C48.3064 48.7011 48.2408 48.8542 48.1861 49.0183C48.0001 49.6526 47.9454 50.2213 48.011 50.7463C48.0548 51.2822 48.2517 51.6978 48.5909 52.0149ZM49.5209 49.1933C49.5538 49.073 49.6085 48.9417 49.6741 48.8324C49.7398 48.7121 49.8273 48.5918 49.9148 48.4714C50.0899 48.2418 50.3087 48.0449 50.5604 47.9027C50.823 47.7496 51.0965 47.6621 51.381 47.6621C51.6327 47.6621 51.8515 47.7387 52.0266 47.8918C52.2016 48.0449 52.311 48.2418 52.3767 48.4933C52.4314 48.7449 52.4205 48.9964 52.3439 49.2698C52.2892 49.4776 52.1907 49.6745 52.0594 49.8823C51.939 50.0791 51.7858 50.2651 51.5998 50.4182C51.5123 50.5057 51.4248 50.5713 51.3263 50.6369C51.2278 50.7025 51.1293 50.7572 51.0309 50.801C50.8339 50.8994 50.626 50.9431 50.4182 50.9431C50.1337 50.9431 49.9039 50.8666 49.7288 50.7025C49.5538 50.5385 49.4662 50.3307 49.4334 50.0682C49.4006 49.7948 49.4334 49.4995 49.5209 49.1933Z" fill="#ED1C24"/>
<path d="M54.347 51.5773C54.5111 51.8507 54.7299 52.0585 55.0035 52.2007C55.277 52.3319 55.5834 52.4085 55.9335 52.4085H56.6994L57.1371 50.9211H56.6009C56.1961 50.9211 55.9007 50.7898 55.7037 50.5164C55.5068 50.2539 55.5068 49.8055 55.6928 49.1931C55.7913 48.8759 55.9335 48.5916 56.1414 48.3619C56.3383 48.1322 56.5572 47.9572 56.7869 47.8369C57.0277 47.7276 57.2574 47.6729 57.4872 47.6729H58.0999L58.5485 46.1746H57.6951C57.4106 46.1746 57.1152 46.2402 56.776 46.3714C56.4368 46.5027 56.1086 46.6995 55.7913 46.9511C55.463 47.2026 55.1676 47.5198 54.8941 47.9026C54.6205 48.2963 54.4017 48.7228 54.2704 49.1821C54.1172 49.6962 54.0516 50.1555 54.0734 50.5711C54.0844 50.9648 54.1719 51.3039 54.347 51.5773Z" fill="#ED1C24"/>
<path d="M26.7959 46.1636H23.404L22.9554 47.6619H23.962L22.5615 52.4084H23.9402L25.3297 47.6619H26.3473L26.7959 46.1636Z" fill="#ED1C24"/>
<path d="M37.77 52.4086L38.8532 48.723L39.3675 51.7087C39.466 52.2665 39.6739 52.5508 40.013 52.5508C40.21 52.5508 40.4069 52.4633 40.6039 52.2665C40.8008 52.0696 40.9321 51.8509 41.0197 51.5884L42.6171 46.1638H41.2494L40.2647 49.4995L39.8489 46.8419C39.8161 46.5685 39.7176 46.3607 39.5754 46.2076C39.4441 46.0654 39.269 45.9998 39.0721 45.9998C38.9298 45.9998 38.7876 46.0326 38.6454 46.1091C38.5031 46.1857 38.3718 46.295 38.2624 46.4263C38.153 46.5685 38.0655 46.7106 38.0217 46.8856L36.4023 52.3977H37.77V52.4086Z" fill="#ED1C24"/>
<path d="M31.6099 52.4084L33.4481 46.1636H32.0804L30.2422 52.4084H31.6099Z" fill="#ED1C24"/>
<path d="M45.5716 52.4085H46.8408L47.2785 50.9211H46.3922C46.2719 50.9211 46.1734 50.9102 46.0968 50.8993C46.0093 50.8883 45.9546 50.8664 45.8999 50.8555C45.8014 50.8008 45.7576 50.7352 45.7576 50.6477C45.7467 50.5493 45.7795 50.418 45.8342 50.2321L47.0268 46.1855H45.6591L44.368 50.5821C44.2258 51.0742 44.2258 51.5008 44.379 51.8617C44.5322 52.2226 44.9151 52.4085 45.5716 52.4085Z" fill="#ED1C24"/>
<path d="M29.1486 48.3509H28.0545L28.7 46.1636H27.3323L25.4941 52.4084H26.8618L27.6168 49.8492H28.711L27.956 52.4084H29.3346L31.1619 46.1636H29.7942L29.1486 48.3509Z" fill="#ED1C24"/>
<path d="M33.0434 49.9916C33.0215 50.1994 33.0106 50.3963 33.0324 50.5931C33.0434 50.779 33.0762 50.965 33.12 51.1181C33.1637 51.2821 33.2294 51.4243 33.295 51.5665C33.4482 51.8399 33.6452 52.0477 33.8859 52.1899C34.1375 52.3321 34.4111 52.3977 34.6955 52.3977H35.5818L36.0085 50.954C35.5709 50.954 35.2645 50.9322 35.0457 50.8775C34.8487 50.8337 34.6955 50.7353 34.619 50.6041C34.5424 50.4728 34.4767 50.2541 34.4548 49.9697H36.304L36.7088 48.6026H34.8597C35.0676 48.3074 35.2426 48.0996 35.4067 47.9574C35.5709 47.8261 35.7678 47.7277 35.9976 47.673C36.2383 47.6183 36.5666 47.5965 36.9933 47.5965L37.42 46.1528H36.4681C36.1289 46.1528 35.7897 46.2403 35.4505 46.4153C35.1113 46.5903 34.7831 46.82 34.4877 47.1153C34.1922 47.4215 33.9296 47.7605 33.6889 48.1433C33.4592 48.5261 33.295 48.9198 33.1747 49.3245C33.109 49.5651 33.0653 49.7838 33.0434 49.9916Z" fill="#ED1C24"/>
<path d="M67.6294 35.1505H59.7625C58.1103 35.1505 53.7009 35.3145 55.1998 30.3712L55.1889 30.3384L56.1299 27.6042L58.2525 21.2937C58.3619 20.9328 58.4932 20.55 58.6683 20.2219L61.2615 12.6647C59.4233 11.5929 57.4647 10.6523 55.3858 9.89772C50.2761 8.02755 50.3856 10.193 49.7181 11.8226L43.3064 30.8524C40.8117 38.3112 44.499 38.9237 49.1711 38.9237H67.1808C66.9839 39.8205 66.7322 40.7063 66.4258 41.5703H40.4507C38.7328 41.5703 34.017 41.7562 36.1069 36.1348C38.2405 29.7806 41.4463 20.1673 44.3021 11.6366C44.9367 9.68992 46.2497 7.48071 41.5557 7.48071C39.2361 7.48071 36.9712 7.68851 34.7611 8.04942C34.6954 8.06036 34.6407 8.07129 34.586 8.08223C34.3015 8.12598 34.017 8.16972 33.7435 8.22441V8.23534C33.1417 8.35565 32.5509 8.48689 31.96 8.62906C31.8506 8.65094 31.7412 8.67281 31.6318 8.70562C30.7893 8.91342 29.9687 9.16496 29.148 9.42744C28.8745 9.51493 28.59 9.61336 28.3165 9.71179C27.7256 9.91959 27.1348 10.1383 26.5658 10.368C26.3142 10.4664 26.0625 10.5649 25.8218 10.6742C25.0778 11.0023 24.3447 11.3414 23.6226 11.7132C23.3928 11.8335 23.174 11.9538 22.9333 12.0851C22.419 12.3585 21.9048 12.6538 21.4014 12.96C21.1498 13.1131 20.8981 13.2662 20.6465 13.4303C20.0666 13.813 19.4976 14.2068 18.9396 14.6114C18.7645 14.7317 18.6004 14.863 18.4253 14.9942C17.8783 15.4098 17.3531 15.8473 16.8498 16.2957C16.6419 16.4816 16.434 16.6675 16.2261 16.8644C15.8103 17.2472 15.4164 17.6409 15.0225 18.0455C14.8584 18.2205 14.6833 18.3955 14.5302 18.5705C14.0269 19.1173 13.5454 19.686 13.0968 20.2657C12.9546 20.4516 12.8233 20.6375 12.692 20.8344C12.3637 21.2828 12.0464 21.7312 11.751 22.2015C11.6088 22.4202 11.4775 22.628 11.3352 22.8467C10.9523 23.4811 10.6022 24.1154 10.2848 24.7825C10.2411 24.881 10.1973 24.9794 10.1535 25.0778C9.94566 25.5372 9.72683 25.9965 9.54082 26.4558L9.40952 26.8496C9.30011 27.1339 9.21258 27.4292 9.1141 27.7136L8.89527 28.3479H8.9281C8.9281 28.3588 8.91716 28.3588 8.91716 28.3698H8.87339L8.88433 28.3479C8.78586 28.676 8.70927 29.015 8.62173 29.3541C8.58891 29.4853 8.54514 29.6165 8.51232 29.7587C8.3482 30.4805 8.22784 31.2133 8.12936 31.9461C8.10748 32.1101 8.09654 32.2851 8.07466 32.4491C7.99807 33.2147 7.94336 33.9803 7.94336 34.7677V34.7787C7.94336 49.8385 22.988 62.0328 41.5339 62.0328C41.8074 62.0328 42.07 62.0219 42.3326 62.011C42.7812 62 43.2189 61.9891 43.6565 61.9672C44.0067 61.9453 44.3568 61.9344 44.7069 61.9016C45.3634 61.8579 46.009 61.7922 46.6436 61.7157C46.9171 61.6829 47.1906 61.6391 47.4642 61.5954C47.9784 61.5188 48.4817 61.4423 48.9851 61.3438C49.2367 61.3001 49.4774 61.2563 49.7291 61.2126C50.4075 61.0704 51.0858 60.9173 51.7533 60.7423C51.9502 60.6876 52.1472 60.6329 52.3441 60.5783C53.0115 60.3923 53.668 60.1955 54.3136 59.9877C54.3573 59.9658 54.423 59.9549 54.4668 59.9439C55.1998 59.6924 55.922 59.419 56.6222 59.1346C56.7098 59.1018 56.8082 59.0581 56.8958 59.0253C67.6075 54.5522 74.9821 45.5513 75.1572 35.1505H67.6294ZM39.7504 58.2159C24.3557 58.2159 11.8604 47.7058 11.8604 34.7349C11.8604 32.5148 12.2324 30.3602 12.9218 28.326C13.819 25.8325 15.2085 23.5139 16.992 21.4468C17.178 21.2281 17.3531 21.0094 17.55 20.8016C17.6485 20.6922 17.7689 20.5828 17.8783 20.4735C19.99 18.308 22.5722 16.4269 25.5155 14.9505C25.6905 14.863 25.8875 14.7755 26.0735 14.688C26.5111 14.4802 26.9597 14.2833 27.4083 14.0865C28.1633 13.7802 28.9292 13.4959 29.728 13.2443C31.9491 12.7194 31.7084 14.0099 31.2269 15.6942C28.6338 23.4483 25.8984 31.607 23.9946 37.2722C21.4999 44.731 25.1872 45.3435 29.8702 45.3435H64.6424C60.036 52.9882 50.6153 58.2159 39.7504 58.2159Z" fill="#005BAA"/>
<path d="M0 0V62H25.9752C13.7207 57.1551 5.24099 46.7762 5.24099 34.7458C5.24099 18.0893 21.5001 4.57153 41.5559 4.57153C56.9069 4.57153 70.0258 12.4897 75.3434 23.6779V0H0Z" fill="#005BAA"/>
<path fill-rule="evenodd" clip-rule="evenodd" d="M59.4561 22.3435C59.4561 26.1057 62.3446 29.1571 65.8897 29.1571V22.3435H59.4561Z" fill="black"/>
<path fill-rule="evenodd" clip-rule="evenodd" d="M72.334 22.3435C72.334 26.1057 69.4564 29.1571 65.9004 29.1571V22.3435H72.334Z" fill="#FFF200"/>
<path fill-rule="evenodd" clip-rule="evenodd" d="M59.4561 22.3326C59.4561 18.5704 62.3446 15.53 65.8897 15.53V22.3326H59.4561Z" fill="#00AEEF"/>
<path fill-rule="evenodd" clip-rule="evenodd" d="M72.334 22.3326C72.334 18.5704 69.4564 15.53 65.9004 15.53V22.3326H72.334Z" fill="#EC008C"/>
<path d="M65.9011 15.3223C67.7283 15.3223 69.3805 16.1097 70.5841 17.3784C71.7767 18.647 72.5207 20.3969 72.5207 22.3327C72.5207 24.2685 71.7767 26.0183 70.5841 27.287C69.3805 28.5556 67.7283 29.3431 65.9011 29.3431C64.0629 29.3431 62.4107 28.5556 61.2181 27.287C60.0145 26.0183 59.2705 24.2575 59.2705 22.3327C59.2705 20.3969 60.0145 18.6361 61.2181 17.3784C62.4107 16.1097 64.0629 15.3223 65.9011 15.3223ZM70.3105 17.6627C69.1835 16.4706 67.6189 15.7269 65.9011 15.7269C64.1723 15.7269 62.6186 16.4706 61.4807 17.6627C60.3537 18.8548 59.6535 20.5172 59.6535 22.3327C59.6535 24.1482 60.3537 25.8105 61.4807 27.0026C62.6186 28.1947 64.1723 28.9384 65.9011 28.9384C67.6298 28.9384 69.1835 28.1947 70.3105 27.0026C71.4375 25.8105 72.1378 24.1482 72.1378 22.3327C72.1378 20.5172 71.4484 18.8548 70.3105 17.6627Z" fill="white"/>
<path d="M64.413 15.7051L67.7502 28.8619L67.3782 28.9603L64.041 15.8144L64.413 15.7051Z" fill="white"/>
<path d="M62.848 16.3394L69.2816 28.1291L68.9424 28.3369L62.5088 16.5362L62.848 16.3394Z" fill="white"/>
<path d="M61.4804 17.3784L70.5837 27.0027L70.3102 27.298L61.2178 17.6628L61.4804 17.3784Z" fill="white"/>
<path d="M60.4194 18.7563L71.5688 25.559L71.3719 25.9089L60.2334 19.1063L60.4194 18.7563Z" fill="white"/>
<path d="M59.7303 20.375L72.1708 23.9075L72.0614 24.2903L59.6318 20.7687L59.7303 20.375Z" fill="white"/>
<path d="M59.6318 23.9075L72.0614 20.375L72.1708 20.7687L59.7303 24.2903L59.6318 23.9075Z" fill="white"/>
<path d="M60.2334 25.5699L71.3719 18.7563L71.5688 19.1063L60.4194 25.9199L60.2334 25.5699Z" fill="white"/>
<path d="M61.2178 27.0027L70.3102 17.3784L70.5837 17.6628L61.4804 27.298L61.2178 27.0027Z" fill="white"/>
<path d="M62.5195 28.1291L68.9532 16.3394L69.2814 16.5472L62.8478 28.3369L62.5195 28.1291Z" fill="white"/>
<path d="M64.0518 28.8619L67.378 15.7051L67.75 15.8144L64.4128 28.9603L64.0518 28.8619Z" fill="white"/>
<path d="M72.3342 22.1357H59.4561V22.5404H72.3342V22.1357Z" fill="white"/>
<path d="M66.0871 15.53H65.7041V29.1462H66.0871V15.53Z" fill="white"/>
<path d="M80.6387 13.824H86.1094V27.0683H89.5998V13.824H94.6001V10.543H80.6387V13.824Z" fill="#ED1C24"/>
<path d="M106.877 16.2082H99.8966V10.543H96.4062V27.0573H99.8966V19.4892H106.877V27.0573H110.368V10.543H106.877V16.2082Z" fill="#ED1C24"/>
<path d="M115.302 10.543H111.812V27.0573H115.302V10.543Z" fill="#ED1C24"/>
<path d="M145.04 27.0573V10.543H141.561V20.4407L134.58 10.543H131.079V27.0573H134.58V17.1487L141.561 27.0573H145.04Z" fill="#ED1C24"/>
<path d="M155.961 10.543H152.471V24.706C152.471 25.3512 152.7 25.909 153.16 26.3793C153.62 26.8386 154.167 27.0683 154.801 27.0683H165.272V23.7873H155.961V10.543Z" fill="#ED1C24"/>
<path d="M184.518 27.0683H194.989V23.7873H185.678V13.824H194.989V10.543H184.518C183.883 10.543 183.336 10.7726 182.877 11.232C182.417 11.6913 182.188 12.2491 182.188 12.8944V24.695C182.188 25.3403 182.417 25.8981 182.877 26.3574C183.347 26.8277 183.894 27.0683 184.518 27.0683Z" fill="#ED1C24"/>
<path d="M118.902 27.0683H129.373V23.7873H120.062V19.4892H129.373V16.2082H120.062V13.824H129.373V10.543H118.902C118.267 10.543 117.72 10.7726 117.261 11.2429C116.801 11.7023 116.571 12.26 116.571 12.9053V24.706C116.571 25.3512 116.801 25.909 117.261 26.3793C117.72 26.8277 118.267 27.0683 118.902 27.0683Z" fill="#ED1C24"/>
<path d="M123.804 9.11023H129.143C129.121 9.08835 129.121 9.07742 129.089 9.05554L124.81 6.1792H123.804H122.6H121.594L117.315 9.05554C117.294 9.07742 117.283 9.08835 117.261 9.11023H122.6H123.804Z" fill="#ED1C24"/>
<path d="M176.925 27.0683H178.478C179.113 27.0683 179.66 26.8386 180.12 26.3793C180.568 25.909 180.798 25.3512 180.798 24.7169V12.9053C180.798 12.26 180.568 11.7023 180.12 11.2429C179.66 10.7836 179.113 10.543 178.478 10.543H169.178C168.544 10.543 167.997 10.7726 167.537 11.2429C167.077 11.7023 166.848 12.26 166.848 12.9053V24.706C166.848 25.3512 167.077 25.909 167.537 26.3683C167.997 26.8277 168.544 27.0573 169.178 27.0573H170.83V27.0683H171.235C171.257 26.7292 171.399 26.423 171.629 26.1933C171.87 25.9527 172.198 25.7996 172.57 25.7996H175.24C175.951 25.7996 176.531 26.3574 176.564 27.0683H176.936H176.925ZM170.327 13.824H177.308V23.7873H170.327V13.824Z" fill="#ED1C24"/>
<path d="M174.222 9.11023H179.561C179.539 9.08835 179.539 9.07742 179.507 9.05554L175.228 6.1792H174.222H173.018H172.012L167.733 9.05554C167.712 9.07742 167.701 9.08835 167.679 9.11023H173.018H174.222Z" fill="#ED1C24"/>
<path d="M92.0508 42.3688H92.8276V39.0331H93.8671C94.3266 39.0331 94.6986 39.0003 94.9831 38.9347C95.2785 38.869 95.5302 38.7706 95.7381 38.6284C96.0335 38.4316 96.2742 38.1582 96.4493 37.8191C96.6134 37.4801 96.7009 37.1082 96.7009 36.7145C96.7009 36.288 96.6134 35.9161 96.4165 35.5771C96.2305 35.2381 95.9569 34.9647 95.6177 34.7569C95.4208 34.6475 95.1801 34.56 94.8956 34.5163C94.6002 34.4616 94.2172 34.4397 93.7358 34.4397H92.0508V42.3688ZM92.8386 35.2162H93.9218C94.6002 35.2162 95.0925 35.3365 95.3989 35.588C95.7053 35.8287 95.8584 36.2224 95.8584 36.7473C95.8584 37.2614 95.7053 37.6332 95.3989 37.8738C95.0925 38.1144 94.622 38.2347 93.9765 38.2347H92.8276V35.2162H92.8386Z" fill="#414042"/>
<path d="M100.247 35.2162H101.395C101.964 35.2162 102.347 35.249 102.577 35.3037C102.796 35.3584 102.982 35.4677 103.135 35.6099C103.321 35.7849 103.463 35.9818 103.562 36.2114C103.649 36.4411 103.704 36.6927 103.704 36.977C103.704 37.4363 103.551 37.8191 103.234 38.1144C102.916 38.4097 102.511 38.5519 102.008 38.5519H101.253L103.606 42.3797H104.536L102.61 39.2737C103.157 39.23 103.617 38.9894 103.978 38.5519C104.35 38.1144 104.525 37.5785 104.525 36.9661C104.525 36.5505 104.426 36.1568 104.251 35.7849C104.065 35.4131 103.824 35.1178 103.507 34.899C103.277 34.735 103.015 34.6147 102.73 34.5491C102.446 34.4834 102.074 34.4397 101.603 34.4397H99.4697V42.3797H100.236V35.2162H100.247Z" fill="#414042"/>
<path d="M108.442 34.4287H107.665V42.3687H108.442V34.4287Z" fill="#414042"/>
<path d="M112.435 35.3693L116.79 42.3687H117.731V34.4287H116.954L117.042 41.4172L112.687 34.4287H111.757V42.3687H112.523L112.435 35.3693Z" fill="#414042"/>
<path d="M120.411 35.2162H121.998V42.3687H122.785V35.2162H124.372V34.4287H120.411V35.2162Z" fill="#414042"/>
<path d="M127.83 34.4287H127.053V42.3687H127.83V34.4287Z" fill="#414042"/>
<path d="M136.419 41.4172L132.053 34.4287H131.123V42.3687H131.889L131.801 35.3693L136.156 42.3687H137.097V34.4287H136.32L136.419 41.4172Z" fill="#414042"/>
<path d="M143.257 39.2737H147.262C147.087 40.0174 146.715 40.6189 146.135 41.0782C145.555 41.5376 144.909 41.7782 144.176 41.7782C143.246 41.7782 142.48 41.4501 141.846 40.8048C141.211 40.1596 140.905 39.3393 140.905 38.366C140.905 37.4473 141.222 36.6708 141.846 36.0146C142.48 35.3584 143.246 35.0412 144.165 35.0412C144.691 35.0412 145.172 35.1506 145.599 35.3802C146.025 35.6099 146.43 35.9599 146.802 36.4302H147.765C147.393 35.7412 146.901 35.2053 146.288 34.8334C145.675 34.4616 144.986 34.2756 144.209 34.2756C143.629 34.2756 143.093 34.3741 142.623 34.56C142.141 34.7459 141.714 35.0412 141.321 35.424C140.916 35.8286 140.609 36.277 140.391 36.7692C140.183 37.2613 140.073 37.7972 140.073 38.3441C140.073 39.5252 140.456 40.5205 141.233 41.3189C142.01 42.1172 142.962 42.5219 144.111 42.5219C145.227 42.5219 146.168 42.15 146.934 41.4063C147.699 40.6627 148.115 39.7112 148.181 38.5628H143.246V39.2737H143.257Z" fill="#414042"/>
<path d="M95.5083 47.9793C95.3223 47.8699 95.0816 47.7824 94.8081 47.7387C94.5236 47.684 94.1516 47.6621 93.6811 47.6621H92.0508V55.5912H92.8057V52.2555H93.8124C94.25 52.2555 94.6111 52.2227 94.8956 52.1571C95.1801 52.0915 95.4208 51.993 95.6287 51.8509C95.9241 51.654 96.1539 51.3806 96.307 51.0415C96.4712 50.7025 96.5478 50.3307 96.5478 49.9369C96.5478 49.5104 96.4602 49.1386 96.2742 48.7995C96.1101 48.4605 95.8475 48.1871 95.5083 47.9793ZM95.2895 51.0962C94.9941 51.3368 94.5345 51.4571 93.9218 51.4571H92.8057V48.4277H93.8561C94.5126 48.4277 94.9941 48.548 95.2895 48.7995C95.5849 49.0401 95.7381 49.4338 95.7381 49.9588C95.7381 50.4838 95.5849 50.8556 95.2895 51.0962Z" fill="#414042"/>
<path d="M101.406 47.6621L98.4189 55.5912H99.2177L100.137 53.0976H103.561L104.481 55.5912H105.29L102.314 47.6621H101.406ZM100.41 52.3868L101.844 48.4058L103.299 52.3868H100.41Z" fill="#414042"/>
<path d="M111.735 48.2744C112.282 48.2744 112.764 48.3947 113.19 48.6243C113.617 48.854 114 49.2258 114.339 49.718H115.247C114.897 49.0181 114.416 48.4712 113.803 48.0884C113.19 47.7057 112.501 47.5088 111.746 47.5088C111.221 47.5088 110.718 47.6072 110.269 47.8041C109.81 48.0009 109.405 48.2853 109.033 48.6681C108.639 49.0618 108.343 49.5102 108.135 50.0133C107.928 50.5054 107.829 51.0304 107.829 51.5882C107.829 52.7803 108.212 53.7755 108.956 54.5739C109.711 55.3723 110.652 55.766 111.779 55.766C112.512 55.766 113.169 55.5801 113.77 55.2082C114.361 54.8364 114.832 54.3223 115.182 53.6443H114.285C113.967 54.1036 113.595 54.4426 113.169 54.6723C112.742 54.902 112.26 55.0113 111.724 55.0113C110.86 55.0113 110.127 54.6832 109.525 54.027C108.923 53.3708 108.617 52.5615 108.617 51.5991C108.617 50.7023 108.923 49.9258 109.525 49.2696C110.149 48.6025 110.882 48.2744 111.735 48.2744Z" fill="#414042"/>
<path d="M122.589 47.6621L119.033 52.0696V47.6621H118.289V55.5912H119.033V53.1523L119.897 52.0805L122.502 55.5912H123.432L120.379 51.5009L123.486 47.6621H122.589Z" fill="#414042"/>
<path d="M128.246 47.6621L125.259 55.5912H126.058L126.977 53.0976H130.401L131.32 55.5912H132.13L129.154 47.6621H128.246ZM127.239 52.3868L128.673 48.4058L130.128 52.3868H127.239Z" fill="#414042"/>
<path d="M137.327 52.4961H141.2C141.036 53.2398 140.675 53.8413 140.117 54.3007C139.559 54.76 138.925 55.0006 138.224 55.0006C137.327 55.0006 136.583 54.6725 135.97 54.0272C135.369 53.382 135.062 52.5617 135.062 51.5884C135.062 50.6697 135.369 49.8932 135.981 49.237C136.594 48.5808 137.338 48.2527 138.224 48.2527C138.739 48.2527 139.198 48.373 139.614 48.5917C140.03 48.8214 140.413 49.1714 140.774 49.6526H141.704C141.343 48.9636 140.872 48.4277 140.27 48.0558C139.68 47.684 139.012 47.498 138.268 47.498C137.71 47.498 137.196 47.5965 136.736 47.7824C136.277 47.9683 135.85 48.2527 135.478 48.6464C135.084 49.0401 134.789 49.4885 134.581 49.9916C134.373 50.4947 134.274 51.0197 134.274 51.5774C134.274 52.7586 134.646 53.7538 135.39 54.5522C136.134 55.3506 137.065 55.7552 138.181 55.7552C139.264 55.7552 140.172 55.3834 140.916 54.6397C141.66 53.896 142.065 52.9445 142.119 51.7962H137.349V52.4961H137.327Z" fill="#414042"/>
<path d="M145.993 47.6621H145.238V55.5912H145.993V47.6621Z" fill="#414042"/>
<path d="M154.505 54.6506L150.293 47.6621H149.385V55.5912H150.129L150.041 48.6027L154.265 55.5912H155.173V47.6621H154.418L154.505 54.6506Z" fill="#414042"/>
<path d="M161.453 52.4961H165.327C165.162 53.2398 164.79 53.8413 164.232 54.3007C163.674 54.76 163.051 55.0006 162.34 55.0006C161.442 55.0006 160.698 54.6725 160.086 54.0272C159.473 53.382 159.167 52.5617 159.167 51.5884C159.167 50.6697 159.473 49.8932 160.086 49.237C160.698 48.5808 161.442 48.2527 162.329 48.2527C162.843 48.2527 163.302 48.373 163.718 48.5917C164.134 48.8214 164.517 49.1714 164.878 49.6526H165.808C165.447 48.9636 164.976 48.4277 164.386 48.0558C163.795 47.684 163.127 47.498 162.383 47.498C161.825 47.498 161.311 47.5965 160.851 47.7824C160.392 47.9683 159.965 48.2527 159.593 48.6464C159.199 49.0401 158.904 49.4885 158.696 49.9916C158.488 50.4947 158.39 51.0197 158.39 51.5774C158.39 52.7586 158.762 53.7538 159.517 54.5522C160.261 55.3506 161.191 55.7552 162.296 55.7552C163.379 55.7552 164.287 55.3834 165.031 54.6397C165.775 53.896 166.18 52.9445 166.235 51.7962H161.464V52.4961H161.453Z" fill="#414042"/>
<path d="M174.835 26.4558H172.702C172.1 26.4558 171.607 26.948 171.607 27.5495C171.607 28.151 172.1 28.6431 172.702 28.6431H174.835C175.437 28.6431 175.929 28.151 175.929 27.5495C175.929 26.948 175.437 26.4558 174.835 26.4558Z" fill="#ED1C24"/>
<path d="M88.4513 54.4319L87.2149 51.3259C87.6088 50.0135 87.9042 48.4167 88.1012 46.5137L87.3681 45.956C87.204 47.5418 86.9742 48.876 86.6788 49.9806L84.3045 44.0202C84.7203 43.4952 85.0594 43.003 85.333 42.5546C85.705 41.9313 85.9895 41.2969 86.1536 40.6407C86.3287 39.9845 86.4162 39.2736 86.4381 38.519C86.46 37.6441 86.3834 36.8894 86.2192 36.2661C86.0551 35.6427 85.8144 35.1615 85.508 34.8334C85.2017 34.4943 84.8297 34.3303 84.4029 34.3193C83.9325 34.3084 83.5276 34.4834 83.1666 34.8552C82.8164 35.2161 82.5319 35.7302 82.335 36.3973C82.138 37.0644 82.0286 37.8409 82.0067 38.7487C81.9958 39.3065 82.0177 39.8424 82.0833 40.3345C82.138 40.8376 82.2584 41.3625 82.4225 41.9094C82.5757 42.4343 82.7945 43.0468 83.0571 43.7358C82.5648 44.3592 82.149 44.9717 81.8317 45.5513C81.4268 46.2731 81.1424 47.0059 80.9564 47.7496C80.7704 48.4933 80.6609 49.3135 80.65 50.2103C80.6281 51.2712 80.7485 52.2008 80.9892 52.9992C81.2408 53.7975 81.591 54.4319 82.0396 54.8912C82.4882 55.3506 83.0134 55.5802 83.6042 55.5912C84.3482 55.6021 85.0266 55.274 85.6284 54.585C86.0223 54.1366 86.3834 53.5351 86.7007 52.8023L87.9042 55.8318L88.4513 54.4319ZM82.8602 38.7159C82.8821 37.8738 83.0134 37.1957 83.276 36.6707C83.5386 36.1458 83.8996 35.8942 84.3592 35.8942C84.7859 35.9051 85.1032 36.1458 85.322 36.627C85.5409 37.1082 85.6503 37.7425 85.6284 38.519C85.6175 39.0549 85.5409 39.558 85.4096 40.0283C85.2673 40.4985 85.0376 40.9798 84.7202 41.4829C84.4795 41.8656 84.1732 42.2922 83.8012 42.7734C83.5604 42.1391 83.3635 41.5922 83.2213 41.1657C83.0681 40.7063 82.9696 40.2798 82.9258 39.897C82.8821 39.5361 82.8602 39.1424 82.8602 38.7159ZM85.322 52.9992C84.8297 53.5679 84.2826 53.8522 83.6808 53.8413C83.2431 53.8304 82.8711 53.6663 82.5429 53.3491C82.2146 53.032 81.963 52.5836 81.7879 52.0149C81.6129 51.4462 81.5363 50.779 81.5472 50.0135C81.5581 49.3573 81.6347 48.7557 81.777 48.2089C81.9192 47.6621 82.149 47.1043 82.4772 46.5247C82.7508 46.0434 83.1118 45.5185 83.5495 44.9607L86.1645 51.5118C85.9129 52.1242 85.6284 52.6273 85.322 52.9992Z" fill="#C7C8CA"/>
</g>
<defs>
<clipPath id="clip0_36001_518">
<rect width="195" height="62" fill="white"/>
</clipPath>
</defs>
</svg>
