<svg width="44" height="44" viewBox="0 0 44 44" fill="none" xmlns="http://www.w3.org/2000/svg">
<path d="M26.0304 5.8135C26.0947 5.83246 26.1614 5.84218 26.2284 5.84238C26.3762 5.84224 26.52 5.79448 26.6385 5.70619C26.757 5.61789 26.8439 5.49376 26.8864 5.35219L27.6852 2.69225C27.7111 2.60576 27.7198 2.51501 27.7106 2.42519C27.7015 2.33536 27.6747 2.24822 27.6319 2.16874C27.589 2.08926 27.5309 2.01899 27.461 1.96196C27.391 1.90492 27.3104 1.86222 27.2239 1.83631C27.1374 1.8104 27.0467 1.80178 26.9569 1.81094C26.867 1.8201 26.7799 1.84686 26.7004 1.8897C26.6209 1.93254 26.5507 1.99061 26.4936 2.0606C26.4366 2.13059 26.3939 2.21113 26.368 2.29763L25.5691 4.95756C25.5432 5.04405 25.5346 5.1348 25.5437 5.22463C25.5529 5.31446 25.5796 5.4016 25.6225 5.48108C25.6653 5.56056 25.7234 5.63083 25.7934 5.68787C25.8634 5.7449 25.9439 5.78759 26.0304 5.8135ZM30.5631 6.9135C30.7232 7.0006 30.9114 7.02056 31.0862 6.96899C31.261 6.91742 31.4082 6.79855 31.4954 6.6385L32.8264 4.18688C32.8695 4.10752 32.8965 4.02044 32.906 3.93063C32.9155 3.84081 32.9071 3.75001 32.8815 3.66341C32.8559 3.57681 32.8134 3.49611 32.7566 3.42591C32.6998 3.35571 32.6297 3.29739 32.5503 3.25428C32.471 3.21117 32.3839 3.18411 32.2941 3.17465C32.2043 3.16519 32.1135 3.17352 32.0269 3.19915C31.9403 3.22478 31.8596 3.26722 31.7894 3.32404C31.7192 3.38086 31.6609 3.45095 31.6177 3.53031L30.2867 5.98125C30.2437 6.06061 30.2166 6.14767 30.2072 6.23747C30.1978 6.32727 30.2062 6.41805 30.2318 6.50462C30.2575 6.59119 30.3 6.67186 30.3568 6.74201C30.4136 6.81217 30.4837 6.87044 30.5631 6.9135ZM35.7104 9.15544C35.8106 9.15552 35.9095 9.13372 36.0004 9.09156C36.0912 9.04941 36.1718 8.98791 36.2364 8.91138L38.0438 6.765C38.1033 6.69616 38.1486 6.61618 38.177 6.52971C38.2054 6.44324 38.2163 6.35199 38.2092 6.26125C38.202 6.17052 38.1769 6.08211 38.1353 6.00115C38.0938 5.92019 38.0365 5.8483 37.9669 5.78963C37.8973 5.73097 37.8168 5.68671 37.73 5.65941C37.6432 5.63212 37.5518 5.62233 37.4611 5.63063C37.3705 5.63893 37.2824 5.66514 37.202 5.70774C37.1216 5.75034 37.0504 5.80849 36.9926 5.87881L35.1852 8.02519C35.1009 8.12533 35.0469 8.24746 35.0296 8.37722C35.0124 8.50697 35.0325 8.63897 35.0877 8.75767C35.1428 8.87638 35.2307 8.97688 35.3411 9.04734C35.4514 9.1178 35.5795 9.1553 35.7104 9.15544ZM39.9035 12.5709C40.0652 12.571 40.2217 12.514 40.3456 12.4101L42.4768 10.6226C42.6121 10.5041 42.6957 10.3374 42.7095 10.1581C42.7234 9.97875 42.6664 9.80116 42.5508 9.66337C42.4352 9.52557 42.2703 9.43856 42.0913 9.42097C41.9123 9.40339 41.7335 9.45665 41.5934 9.56931L39.4621 11.3568C39.3543 11.4476 39.277 11.5693 39.2406 11.7054C39.2043 11.8416 39.2107 11.9857 39.2589 12.1181C39.3072 12.2505 39.3949 12.3649 39.5103 12.4458C39.6258 12.5267 39.7632 12.5701 39.9042 12.5703L39.9035 12.5709ZM7.76286 8.91138C7.82064 8.9817 7.89181 9.03985 7.97224 9.08245C8.05266 9.12505 8.14075 9.15126 8.23139 9.15956C8.32202 9.16785 8.4134 9.15807 8.50023 9.13078C8.58705 9.10348 8.66759 9.05922 8.73718 9.00056C8.80677 8.94189 8.86401 8.87 8.9056 8.78904C8.94718 8.70808 8.97228 8.61967 8.97943 8.52893C8.98658 8.4382 8.97564 8.34695 8.94725 8.26048C8.91886 8.174 8.87359 8.09403 8.81405 8.02519L7.00661 5.87881C6.88832 5.74204 6.7209 5.65738 6.54063 5.64317C6.36035 5.62896 6.18174 5.68635 6.04348 5.80291C5.90523 5.91946 5.81846 6.0858 5.80198 6.26588C5.78549 6.44596 5.84062 6.62528 5.95542 6.765L7.76286 8.91138ZM12.5039 6.63713C12.5469 6.71648 12.6052 6.78658 12.6754 6.84342C12.7455 6.90026 12.8262 6.94272 12.9127 6.96839C12.9993 6.99405 13.0901 7.00241 13.1799 6.993C13.2697 6.98358 13.3568 6.95657 13.4361 6.9135C13.5155 6.87043 13.5856 6.81216 13.6424 6.742C13.6992 6.67185 13.7417 6.59118 13.7674 6.50461C13.793 6.41805 13.8014 6.32727 13.792 6.23747C13.7826 6.14767 13.7556 6.06061 13.7125 5.98125L12.3815 3.52894C12.2944 3.36866 12.1473 3.24954 11.9724 3.19778C11.7975 3.14601 11.6092 3.16584 11.4489 3.25291C11.2886 3.33997 11.1695 3.48714 11.1177 3.66204C11.066 3.83693 11.0858 4.02523 11.1729 4.1855L12.5039 6.63713ZM3.67567 12.4272C3.74675 12.4858 3.82888 12.5295 3.91718 12.5558C4.00548 12.582 4.09815 12.5902 4.18969 12.5799C4.28122 12.5696 4.36976 12.5411 4.45004 12.4959C4.53032 12.4507 4.6007 12.3899 4.65701 12.317C4.71332 12.2441 4.7544 12.1606 4.77782 12.0715C4.80125 11.9825 4.80653 11.8896 4.79336 11.7984C4.78019 11.7072 4.74883 11.6197 4.70115 11.5408C4.65347 11.462 4.59044 11.3936 4.5158 11.3396L2.48217 9.76869C2.41109 9.7101 2.32896 9.6664 2.24066 9.64018C2.15236 9.61395 2.05969 9.60574 1.96816 9.61602C1.87662 9.62631 1.78809 9.65488 1.70781 9.70005C1.62753 9.74522 1.55715 9.80605 1.50084 9.87895C1.44453 9.95185 1.40344 10.0353 1.38002 10.1244C1.3566 10.2135 1.35132 10.3064 1.36449 10.3975C1.37766 10.4887 1.40902 10.5763 1.4567 10.6551C1.50438 10.7339 1.56741 10.8023 1.64205 10.8563L3.67567 12.4272ZM17.1129 5.35219C17.1553 5.49376 17.2422 5.61789 17.3607 5.70619C17.4792 5.79448 17.623 5.84224 17.7708 5.84238C17.8378 5.84218 17.9045 5.83246 17.9688 5.8135C18.0553 5.78759 18.1358 5.7449 18.2058 5.68787C18.2758 5.63083 18.3339 5.56056 18.3767 5.48108C18.4196 5.4016 18.4463 5.31446 18.4555 5.22463C18.4647 5.1348 18.456 5.04405 18.4301 4.95756L17.6312 2.29763C17.6053 2.21113 17.5626 2.13059 17.5056 2.0606C17.4486 1.99061 17.3783 1.93254 17.2988 1.8897C17.2193 1.84686 17.1322 1.8201 17.0424 1.81094C16.9525 1.80178 16.8618 1.8104 16.7753 1.83631C16.6888 1.86222 16.6083 1.90492 16.5383 1.96196C16.4683 2.01899 16.4102 2.08926 16.3674 2.16874C16.3245 2.24822 16.2978 2.33536 16.2886 2.42519C16.2795 2.51501 16.2881 2.60576 16.314 2.69225L17.1129 5.35219ZM21.9996 5.5C22.1819 5.5 22.3568 5.42757 22.4857 5.29864C22.6147 5.1697 22.6871 4.99484 22.6871 4.8125V2.0625C22.6871 1.88016 22.6147 1.7053 22.4857 1.57636C22.3568 1.44743 22.1819 1.375 21.9996 1.375C21.8173 1.375 21.6424 1.44743 21.5135 1.57636C21.3845 1.7053 21.3121 1.88016 21.3121 2.0625V4.8125C21.3121 4.99484 21.3845 5.1697 21.5135 5.29864C21.6424 5.42757 21.8173 5.5 21.9996 5.5ZM12.6544 26.8558C8.85993 25.1242 5.53006 22.5177 2.93799 19.25C4.25901 17.6 5.76433 16.1065 7.42461 14.7984C7.56811 14.6858 7.661 14.5209 7.68286 14.3398C7.70471 14.1587 7.65373 13.9763 7.54114 13.8328C7.42855 13.6893 7.26356 13.5965 7.08248 13.5746C6.9014 13.5527 6.71905 13.6037 6.57555 13.7163C4.6864 15.2064 2.98808 16.9237 1.51899 18.8293C1.42577 18.9497 1.3752 19.0977 1.3752 19.25C1.3752 19.4023 1.42577 19.5503 1.51899 19.6707C4.29734 23.3105 7.92965 26.2096 12.0948 28.1119C12.2614 28.1861 12.4506 28.1911 12.6208 28.1258C12.7911 28.0605 12.9284 27.9302 13.0026 27.7637C13.0769 27.5971 13.0819 27.4079 13.0166 27.2376C12.9513 27.0674 12.821 26.93 12.6544 26.8558Z" fill="white"/>
<path d="M42.4812 19.6707C42.5744 19.5503 42.625 19.4023 42.625 19.25C42.625 19.0977 42.5744 18.9497 42.4812 18.8293C37.2754 12.1055 29.8099 8.25 21.9999 8.25C17.2865 8.26904 12.6774 9.63826 8.71805 12.1956C8.56434 12.2937 8.4559 12.4488 8.41657 12.6269C8.37725 12.8049 8.41027 12.9913 8.50836 13.145C8.60646 13.2987 8.7616 13.4072 8.93965 13.4465C9.11771 13.4858 9.30409 13.4528 9.4578 13.3547C11.2026 12.2418 13.0844 11.3599 15.0561 10.7312C13.7837 11.7649 12.759 13.0705 12.0574 14.5522C11.3558 16.0339 10.995 17.6539 11.0016 19.2933C11.0082 20.9326 11.382 22.5497 12.0955 24.0257C12.809 25.5016 13.8442 26.799 15.1249 27.8224V28.875C14.5779 28.875 14.0532 29.0923 13.6665 29.4791C13.2797 29.8659 13.0624 30.3905 13.0624 30.9375C13.0624 31.4845 13.2797 32.0091 13.6665 32.3959C14.0532 32.7827 14.5779 33 15.1249 33H28.8749C29.0572 33 29.2321 33.0724 29.361 33.2014C29.4899 33.3303 29.5624 33.5052 29.5624 33.6875C29.5624 33.8698 29.4899 34.0447 29.361 34.1736C29.2321 34.3026 29.0572 34.375 28.8749 34.375H15.1249C14.9425 34.375 14.7677 34.4474 14.6387 34.5764C14.5098 34.7053 14.4374 34.8802 14.4374 35.0625C14.4374 35.2448 14.5098 35.4197 14.6387 35.5486C14.7677 35.6776 14.9425 35.75 15.1249 35.75C15.1249 37.5734 15.8492 39.322 17.1385 40.6114C18.4278 41.9007 20.1765 42.625 21.9999 42.625C23.8232 42.625 25.5719 41.9007 26.8612 40.6114C28.1505 39.322 28.8749 37.5734 28.8749 35.75C29.2738 35.7518 29.6646 35.6373 29.9995 35.4206C30.3344 35.2039 30.599 34.8944 30.7608 34.5298C30.9227 34.1652 30.9749 33.7614 30.911 33.3676C30.8471 32.9738 30.6699 32.6072 30.4011 32.3125C30.6699 32.0178 30.8471 31.6512 30.911 31.2574C30.9749 30.8636 30.9227 30.4598 30.7608 30.0952C30.599 29.7306 30.3344 29.4211 29.9995 29.2044C29.6646 28.9877 29.2738 28.8732 28.8749 28.875V27.8224C30.1655 26.7982 31.2072 25.4946 31.9217 24.0099C32.6362 22.5251 33.0048 20.8977 32.9999 19.25C32.9982 18.4602 32.912 17.6729 32.7427 16.9015C32.7243 16.8125 32.6884 16.7281 32.6371 16.6531C32.5858 16.5781 32.5201 16.514 32.4439 16.4645C32.3677 16.415 32.2824 16.3812 32.193 16.3648C32.1036 16.3485 32.0119 16.3501 31.9231 16.3694C31.8343 16.3888 31.7503 16.4256 31.6758 16.4776C31.6013 16.5296 31.5379 16.5959 31.4892 16.6727C31.4405 16.7494 31.4074 16.835 31.392 16.9245C31.3766 17.0141 31.3791 17.1058 31.3994 17.1944C31.5478 17.8696 31.6234 18.5587 31.6249 19.25C31.6288 20.7431 31.2825 22.2163 30.6139 23.5513C29.9453 24.8863 28.9729 26.0459 27.7749 26.9369C27.6895 27.001 27.6202 27.084 27.5724 27.1795C27.5247 27.2749 27.4999 27.3802 27.4999 27.4869V28.875H24.7499V24.0075C25.8773 23.3603 26.7377 22.3332 27.1772 21.1098C27.6168 19.8864 27.6069 18.5465 27.1492 17.3298C27.104 17.2091 27.0258 17.1034 26.9234 17.025C26.8211 16.9466 26.6987 16.8986 26.5704 16.8864C26.442 16.8731 26.3125 16.8967 26.1969 16.9543C26.0814 17.0118 25.9846 17.1011 25.9179 17.2116C25.7972 17.4137 25.6261 17.581 25.4214 17.6973C25.2167 17.8136 24.9853 17.8748 24.7499 17.875C24.3852 17.875 24.0355 17.7301 23.7776 17.4723C23.5197 17.2144 23.3749 16.8647 23.3749 16.5C23.3749 16.2645 23.4359 16.0331 23.5521 15.8282C23.6682 15.6234 23.8355 15.4521 24.0376 15.3312C24.1476 15.264 24.2365 15.1672 24.294 15.0518C24.3516 14.9365 24.3756 14.8073 24.3633 14.679C24.351 14.5506 24.3028 14.4284 24.2243 14.3261C24.1458 14.2238 24.0401 14.1457 23.9194 14.1006C23.088 13.7879 22.1931 13.6817 21.3116 13.7911C20.4301 13.9005 19.5883 14.2223 18.8586 14.7287C18.1289 15.2352 17.533 15.9112 17.1221 16.6987C16.7113 17.4863 16.4978 18.3617 16.4999 19.25C16.5037 20.2139 16.7595 21.1601 17.2419 21.9946C17.7243 22.8292 18.4165 23.5231 19.2499 24.0075V28.875H16.4999V27.4856C16.4999 27.3788 16.475 27.2736 16.4273 27.1781C16.3795 27.0826 16.3102 26.9996 16.2249 26.9356C15.0718 26.0684 14.1286 24.9531 13.465 23.672C12.8014 22.3909 12.4346 20.977 12.3915 19.5349C12.3485 18.0928 12.6304 16.6596 13.2164 15.3412C13.8023 14.0228 14.6774 12.8532 15.7766 11.9188C16.8759 10.9845 18.1713 10.3094 19.5669 9.94354C20.9625 9.57769 22.4224 9.53046 23.8387 9.80534C25.255 10.0802 26.5913 10.6702 27.7487 11.5315C28.9061 12.3929 29.8549 13.5035 30.5249 14.7812C30.5668 14.8612 30.6242 14.9321 30.6935 14.9899C30.7629 15.0477 30.843 15.0912 30.9292 15.1181C31.0154 15.1449 31.1061 15.1545 31.196 15.1463C31.2859 15.1382 31.3734 15.1123 31.4533 15.0703C31.5333 15.0284 31.6042 14.971 31.662 14.9017C31.7198 14.8323 31.7633 14.7522 31.7902 14.666C31.817 14.5798 31.8266 14.4891 31.8184 14.3992C31.8102 14.3093 31.7844 14.2218 31.7424 14.1419C31.0546 12.8318 30.1106 11.6734 28.9663 10.7353C33.7429 12.3318 37.9476 15.2917 41.0615 19.25C38.4694 22.5177 35.1395 25.1242 31.345 26.8558C31.2626 26.8926 31.1881 26.9452 31.126 27.0107C31.0639 27.0762 31.0153 27.1533 30.9829 27.2376C30.9506 27.3219 30.9352 27.4118 30.9376 27.502C30.9399 27.5923 30.9601 27.6812 30.9968 27.7637C31.0336 27.8461 31.0862 27.9206 31.1517 27.9827C31.2172 28.0448 31.2943 28.0935 31.3786 28.1258C31.4629 28.1581 31.5528 28.1735 31.643 28.1711C31.7333 28.1688 31.8222 28.1486 31.9047 28.1119C36.0701 26.2097 39.7026 23.3106 42.4812 19.6707ZM21.9999 41.25C20.5417 41.2484 19.1437 40.6684 18.1126 39.6373C17.0815 38.6062 16.5015 37.2082 16.4999 35.75H27.4999C27.4982 37.2082 26.9182 38.6062 25.8871 39.6373C24.856 40.6684 23.4581 41.2484 21.9999 41.25ZM29.5624 30.9375C29.5624 31.1198 29.4899 31.2947 29.361 31.4236C29.2321 31.5526 29.0572 31.625 28.8749 31.625H15.1249C14.9425 31.625 14.7677 31.5526 14.6387 31.4236C14.5098 31.2947 14.4374 31.1198 14.4374 30.9375C14.4374 30.7552 14.5098 30.5803 14.6387 30.4514C14.7677 30.3224 14.9425 30.25 15.1249 30.25H28.8749C29.0572 30.25 29.2321 30.3224 29.361 30.4514C29.4899 30.5803 29.5624 30.7552 29.5624 30.9375ZM20.233 22.9721C19.3896 22.5693 18.7081 21.8919 18.3 21.0511C17.8919 20.2102 17.7814 19.2557 17.9867 18.3439C18.192 17.4321 18.7009 16.617 19.43 16.0322C20.1591 15.4474 21.0652 15.1275 21.9999 15.125C22.1202 15.125 22.2405 15.1305 22.3594 15.1408C22.0621 15.6643 21.9448 16.2708 22.0254 16.8674C22.1061 17.464 22.3803 18.0176 22.8059 18.4433C23.2316 18.8691 23.7851 19.1434 24.3817 19.2241C24.9783 19.3049 25.5848 19.1877 26.1084 18.8904C26.1194 19.0094 26.1249 19.1297 26.1249 19.25C26.1217 20.0294 25.8987 20.7921 25.4816 21.4505C25.0644 22.1089 24.4701 22.6363 23.7667 22.9721C23.6497 23.0278 23.5509 23.1155 23.4815 23.225C23.4122 23.3344 23.3752 23.4613 23.3749 23.5909V28.875H20.6249V23.5929C20.6249 23.463 20.5881 23.3357 20.5187 23.2258C20.4494 23.116 20.3503 23.028 20.233 22.9721Z" fill="white"/>
<path d="M36.2364 28.605C36.178 28.536 36.1066 28.4791 36.0263 28.4377C35.9459 28.3963 35.8582 28.3711 35.7681 28.3635C35.6781 28.356 35.5874 28.3663 35.5013 28.3938C35.4152 28.4213 35.3353 28.4655 35.2663 28.5239C35.1973 28.5823 35.1404 28.6537 35.099 28.734C35.0576 28.8143 35.0324 28.902 35.0248 28.9921C35.0173 29.0822 35.0276 29.1729 35.0551 29.259C35.0826 29.3451 35.1268 29.4249 35.1852 29.494L36.9926 31.641C37.0508 31.71 37.1221 31.7669 37.2023 31.8084C37.2825 31.8499 37.3701 31.8752 37.4601 31.8828C37.5501 31.8904 37.6407 31.8802 37.7267 31.8529C37.8128 31.8255 37.8926 31.7814 37.9616 31.7232C38.0307 31.6649 38.0875 31.5937 38.129 31.5135C38.1705 31.4333 38.1958 31.3457 38.2034 31.2557C38.211 31.1657 38.2009 31.0751 38.1735 30.989C38.1461 30.903 38.102 30.8232 38.0438 30.7541L36.2364 28.605ZM40.3455 25.1077C40.277 25.046 40.1966 24.9986 40.1094 24.9686C40.0221 24.9386 39.9297 24.9264 39.8376 24.9328C39.7456 24.9393 39.6557 24.9642 39.5735 25.0061C39.4913 25.048 39.4183 25.106 39.359 25.1767C39.2996 25.2474 39.2551 25.3293 39.2281 25.4175C39.2011 25.5058 39.1922 25.5986 39.2018 25.6904C39.2114 25.7821 39.2394 25.8711 39.2842 25.9518C39.3289 26.0325 39.3894 26.1034 39.4621 26.1603L41.5934 27.9478C41.7335 28.0599 41.912 28.1128 42.0906 28.0952C42.2693 28.0775 42.4339 27.9907 42.5494 27.8532C42.6648 27.7157 42.722 27.5386 42.7085 27.3596C42.6951 27.1805 42.6122 27.0139 42.4775 26.8952L40.3455 25.1077ZM7.76286 28.605L5.95542 30.7514C5.83782 30.8908 5.7804 31.0712 5.79581 31.2529C5.81121 31.4347 5.89818 31.6028 6.03758 31.7204C6.17697 31.838 6.35738 31.8954 6.53911 31.88C6.72084 31.8646 6.889 31.7777 7.00661 31.6383L8.81405 29.494C8.87358 29.4251 8.91886 29.3451 8.94725 29.2587C8.97564 29.1722 8.98658 29.0809 8.97942 28.9902C8.97227 28.8995 8.94718 28.8111 8.90559 28.7301C8.86401 28.6491 8.80677 28.5772 8.73718 28.5186C8.66759 28.4599 8.58705 28.4157 8.50023 28.3884C8.4134 28.3611 8.32202 28.3513 8.23138 28.3596C8.14075 28.3679 8.05266 28.3941 7.97224 28.4367C7.89181 28.4793 7.82064 28.5374 7.76286 28.6078V28.605ZM3.67567 25.0898L1.64205 26.6601C1.56741 26.7141 1.50438 26.7825 1.4567 26.8613C1.40902 26.9401 1.37766 27.0277 1.36449 27.1189C1.35132 27.21 1.3566 27.3029 1.38002 27.392C1.40344 27.4811 1.44453 27.5645 1.50084 27.6374C1.55715 27.7103 1.62753 27.7712 1.70781 27.8163C1.78809 27.8615 1.87662 27.8901 1.96816 27.9004C2.05969 27.9107 2.15236 27.9024 2.24066 27.8762C2.32896 27.85 2.41109 27.8063 2.48217 27.7477L4.5158 26.1775C4.59044 26.1235 4.65347 26.0551 4.70115 25.9762C4.74883 25.8974 4.78019 25.8098 4.79336 25.7187C4.80653 25.6275 4.80125 25.5346 4.77782 25.4455C4.7544 25.3565 4.71332 25.273 4.65701 25.2001C4.6007 25.1272 4.53032 25.0664 4.45004 25.0212C4.36976 24.976 4.28122 24.9474 4.18969 24.9372C4.09815 24.9269 4.00548 24.9351 3.91718 24.9613C3.82888 24.9875 3.74675 25.0312 3.67567 25.0898Z" fill="white"/>
</svg>
